<mxfile host="app.diagrams.net" modified="2024-05-19T08:26:58.200Z" agent="Mozilla/5.0 (Windows NT 10.0; Win64; x64) AppleWebKit/537.36 (KHTML, like Gecko) Chrome/123.0.0.0 Safari/537.36 OPR/109.0.0.0 (Edition Yx GX 03)" etag="aWG9koeq0JOBQz3jaJ7x" version="24.4.4" type="device">
  <diagram name="Страница — 1" id="ZsUCM4O6-AnJneLF-2gy">
    <mxGraphModel dx="2038" dy="666" grid="1" gridSize="10" guides="1" tooltips="1" connect="1" arrows="1" fold="1" page="1" pageScale="1" pageWidth="827" pageHeight="1169" math="0" shadow="0">
      <root>
        <mxCell id="0" />
        <mxCell id="1" parent="0" />
        <mxCell id="63GN2_WQ_E0DW2pDX5st-3" value="" style="group" vertex="1" connectable="0" parent="1">
          <mxGeometry x="-50" y="680" width="210" height="90" as="geometry" />
        </mxCell>
        <mxCell id="63GN2_WQ_E0DW2pDX5st-1" value="" style="shape=folder;fontStyle=1;spacingTop=10;tabWidth=100;tabHeight=30;tabPosition=left;html=1;whiteSpace=wrap;" vertex="1" parent="63GN2_WQ_E0DW2pDX5st-3">
          <mxGeometry width="210" height="90" as="geometry" />
        </mxCell>
        <mxCell id="63GN2_WQ_E0DW2pDX5st-2" value="Генеральный директор" style="text;html=1;align=center;verticalAlign=middle;whiteSpace=wrap;rounded=0;" vertex="1" parent="63GN2_WQ_E0DW2pDX5st-3">
          <mxGeometry y="3" width="100" height="22.5" as="geometry" />
        </mxCell>
        <mxCell id="63GN2_WQ_E0DW2pDX5st-13" value="" style="group" vertex="1" connectable="0" parent="1">
          <mxGeometry x="-340" y="690" width="240" height="140" as="geometry" />
        </mxCell>
        <mxCell id="63GN2_WQ_E0DW2pDX5st-14" value="&lt;div style=&quot;text-align: justify;&quot;&gt;&lt;span style=&quot;background-color: initial;&quot;&gt;+ Супер-вайзер&lt;/span&gt;&lt;/div&gt;&lt;div style=&quot;text-align: justify;&quot;&gt;&lt;span style=&quot;background-color: initial;&quot;&gt;&lt;br&gt;&lt;/span&gt;&lt;/div&gt;&lt;div style=&quot;text-align: justify;&quot;&gt;&lt;span style=&quot;background-color: initial;&quot;&gt;+&amp;nbsp;&lt;/span&gt;&lt;span style=&quot;background-color: initial;&quot;&gt;Администратор товаров&lt;/span&gt;&lt;/div&gt;&lt;div style=&quot;text-align: justify;&quot;&gt;&lt;br&gt;&lt;/div&gt;" style="shape=folder;fontStyle=1;spacingTop=10;tabWidth=140;tabHeight=30;tabPosition=left;html=1;whiteSpace=wrap;align=right;" vertex="1" parent="63GN2_WQ_E0DW2pDX5st-13">
          <mxGeometry width="190" height="140" as="geometry" />
        </mxCell>
        <mxCell id="63GN2_WQ_E0DW2pDX5st-15" value="Отдел управления товарами" style="text;html=1;align=center;verticalAlign=middle;whiteSpace=wrap;rounded=0;" vertex="1" parent="63GN2_WQ_E0DW2pDX5st-13">
          <mxGeometry y="3" width="150" height="22.5" as="geometry" />
        </mxCell>
        <mxCell id="63GN2_WQ_E0DW2pDX5st-16" value="" style="shape=image;verticalLabelPosition=bottom;labelBackgroundColor=default;verticalAlign=top;aspect=fixed;imageAspect=0;image=data:image/png,iVBORw0KGgoAAAANSUhEUgAAADAAAAAwCAYAAABXAvmHAAAACXBIWXMAAAsTAAALEwEAmpwYAAAGwElEQVR4nO2Y6XMURRyG418BISEHlwrqB0EuhYicIpcSuRQBlfsQiIAgyGEU5BLxwLKQW0RQIAgEQvIFvhiIgQgm5M7m3uy9yW4Odvq1eqZ7pncys7vBKlNWpaueKmqmE573rV/3VCUqqmt1ra71/1/+rO7xvszoTF9WdKs/MwY+yo1YNMn0RGOGgjcjDt7rcfBcj4fnWjzc1+J97mvxt9zp8bM7N0BmdKY/qwdU+UwuH4tGNYAiHxwgAe70BLjSE+BMTzgMRD3RKQF8tPmsGHSwfTkAlXelJ8J1NRHOqwlbOyWA36z9jMjapwGcVxPhuNKL2K8kTu+EADGh278eSfuUXnBcSfQ60nsP+G8DZJq3742wfUWe0ht2yuXesF3uA9vvlL5ooFzqC+ulfrCm9UN92pMydRcpT6GWcuFp1FDO95eppvw2AFWUX59BpUKr5eyzN0rP9o9TA1D55ntz0OYvQZvkRWvAi5ZHHrS0edDc5oa/1Q1fiwu+Zheaml1o9DvR6HPC2+SAp8kBd6Mdbq8dLq8NTe58EMd5wHYGsJ0GGk4BDScA63HAehSoPwzU/QDUHQJqvwWpOQhSfQCkah9I5W4Qy06QilSQ8m0gZVtASjeClKwHKVoLUrgKUsFS+HPmoDZtyM2gAG0tFkW8zaMKU1GvzwFPI5Wzw+m2weFqgM1pRYO9HvW2OtRZa2C1lsNpzUOLLQOwnQKx7IZUuhVS6SeQSrZAKtkMqeRjSMWbIBVvhFT8EWODQtH6yGD7SfE6NOfOlbQRuvkciPcW4LoMuC6FIQ1wUi4CzguA8zxgPwdYT4BUfaWIm0pz2XWMDxUKUwTW6mDPi1K0/fRnC9dCDRCo3AtSfxyk9nuQ6kMg1d+CVH0tC5HKL0Es+0Ese0EqdoNU7AIp/xxS+WeQyj6FVLYdUuk2Xdtm0lyWy62BVLha4SHlAxPYHnn/GjWYGoDUHQOpMZPfB2LZA1LxhSCfCqlsB5Ono2IgbijNhGWpVQjIrGSsQKDABPpO3bdKDaYFqI1Avnyn0PoOoXU+KkbiwdKqsCy2HIGCZYylCvmcJQz2XIbvXc5YIQTokLxR63xUdOJm0qrkYsaiCOH7l8ihhADfdUxennV960biemlReCECf1PeF3jPBHHPQuVn8xcJAaq+Aak6aCKfGmJkWOvyjFPx1TpxselFOmEq9i5jAQIPwqDu1UIJAaj8gQjlN4VofaWBuIG0KjYfgQfzdLyjQ3w3n0EDLRACUPnK/QZjE4k8a12e8WUG4qI0FxBE789lvB0Gtk8IJgQQ73lh5kX5Yr28UeviqOjFmXSQ7FuMOTLSX5TZAsoz/l7brwTSAtDRYR+p9gdW33xKe3n1gAqtm4orwprkLMbMEMwSUILR3yEE2KN9pMpSdbdNqOb5yOhbNxbXGubCMyDlUd7UkWzwbIayXwilBWh3aMWrMhJ5fet6cTPpZEh50wXegHRPII/D3ycL4WaIAXYZzD27Kos2aAc2rDxvXWxcFBeluejrjGlh4Pu0QFqAdqPDDy2/56n8ahN5flDnIXCfy4ujohNXpanUVIW7UxiTDeDvprD9WiA1gHZl6ueef6T4Vbk8hPxcnfxMNiom4qrwJMZrYZgUHOreVCGAPDrbdaMjzj2/55cGH1hDeTYyauuiuCjNxHInQsp9VWCCDv6c7psYFEYIsCPE6NC55x+pxRHI85HhrYuNT9JJT2CMh/QnZZwJ45U9ukBagKCDy24ddXRWmowOv23M5Fnr6qjoxbnwWMYYxmiBMQJjtUAsjBBA375wZQaNTkfk9a0biY+BlDMaUs4rjFEmsPdqKCWMECBU+6FGh9/xM83l1db14qLwy5BykkDucEYK/06S3yl7eBgliBZAvXkM2s83aD+k/DQTebFxRZqospQRIHdeMmAEQwklBhECbNZunrDtG41OsnZgg+QnsMNJ5fmo0P88KVj69ouM4Saw92qgkXIQIQAfH+HmMZz9SEZnMqRcPvN6ed66KD4c5PYwkNtDQbIpQ4Khz2WGaWHkICP1AbTxCf5ohWhf/lDp5O+Gkmeti+LZXHYwSPYLJgwWwrAgd0YIfxeiZ8B0fELNPv9QGY3OOOGwcnneOm98MBMcBPLHQMbzAvzZoHZBHmWP0gI0ZAzxBOQzkGJwePU3TwTth5NXGx9kIB2KgfLPPcpOon/kdasBrBfihteei7ZX/dINj0PlmW6w/NwdltPdUfFTNMpPRaPsZA+UnohByfEYFB+LRdHRWBQe6YmHP/ZEweG4f0XhkUR70ck+Q9UAXatrda2u1bWiHnP9Aw5IwHNzYU21AAAAAElFTkSuQmCC;" vertex="1" parent="63GN2_WQ_E0DW2pDX5st-13">
          <mxGeometry x="6" y="37" width="20" height="20" as="geometry" />
        </mxCell>
        <mxCell id="63GN2_WQ_E0DW2pDX5st-19" value="" style="shape=image;verticalLabelPosition=bottom;labelBackgroundColor=default;verticalAlign=top;aspect=fixed;imageAspect=0;image=data:image/png,iVBORw0KGgoAAAANSUhEUgAAADAAAAAwCAYAAABXAvmHAAAACXBIWXMAAAsTAAALEwEAmpwYAAAGwElEQVR4nO2Y6XMURRyG418BISEHlwrqB0EuhYicIpcSuRQBlfsQiIAgyGEU5BLxwLKQW0RQIAgEQvIFvhiIgQgm5M7m3uy9yW4Odvq1eqZ7pncys7vBKlNWpaueKmqmE573rV/3VCUqqmt1ra71/1/+rO7xvszoTF9WdKs/MwY+yo1YNMn0RGOGgjcjDt7rcfBcj4fnWjzc1+J97mvxt9zp8bM7N0BmdKY/qwdU+UwuH4tGNYAiHxwgAe70BLjSE+BMTzgMRD3RKQF8tPmsGHSwfTkAlXelJ8J1NRHOqwlbOyWA36z9jMjapwGcVxPhuNKL2K8kTu+EADGh278eSfuUXnBcSfQ60nsP+G8DZJq3742wfUWe0ht2yuXesF3uA9vvlL5ooFzqC+ulfrCm9UN92pMydRcpT6GWcuFp1FDO95eppvw2AFWUX59BpUKr5eyzN0rP9o9TA1D55ntz0OYvQZvkRWvAi5ZHHrS0edDc5oa/1Q1fiwu+Zheaml1o9DvR6HPC2+SAp8kBd6Mdbq8dLq8NTe58EMd5wHYGsJ0GGk4BDScA63HAehSoPwzU/QDUHQJqvwWpOQhSfQCkah9I5W4Qy06QilSQ8m0gZVtASjeClKwHKVoLUrgKUsFS+HPmoDZtyM2gAG0tFkW8zaMKU1GvzwFPI5Wzw+m2weFqgM1pRYO9HvW2OtRZa2C1lsNpzUOLLQOwnQKx7IZUuhVS6SeQSrZAKtkMqeRjSMWbIBVvhFT8EWODQtH6yGD7SfE6NOfOlbQRuvkciPcW4LoMuC6FIQ1wUi4CzguA8zxgPwdYT4BUfaWIm0pz2XWMDxUKUwTW6mDPi1K0/fRnC9dCDRCo3AtSfxyk9nuQ6kMg1d+CVH0tC5HKL0Es+0Ese0EqdoNU7AIp/xxS+WeQyj6FVLYdUuk2Xdtm0lyWy62BVLha4SHlAxPYHnn/GjWYGoDUHQOpMZPfB2LZA1LxhSCfCqlsB5Ono2IgbijNhGWpVQjIrGSsQKDABPpO3bdKDaYFqI1Avnyn0PoOoXU+KkbiwdKqsCy2HIGCZYylCvmcJQz2XIbvXc5YIQTokLxR63xUdOJm0qrkYsaiCOH7l8ihhADfdUxennV960biemlReCECf1PeF3jPBHHPQuVn8xcJAaq+Aak6aCKfGmJkWOvyjFPx1TpxselFOmEq9i5jAQIPwqDu1UIJAaj8gQjlN4VofaWBuIG0KjYfgQfzdLyjQ3w3n0EDLRACUPnK/QZjE4k8a12e8WUG4qI0FxBE789lvB0Gtk8IJgQQ73lh5kX5Yr28UeviqOjFmXSQ7FuMOTLSX5TZAsoz/l7brwTSAtDRYR+p9gdW33xKe3n1gAqtm4orwprkLMbMEMwSUILR3yEE2KN9pMpSdbdNqOb5yOhbNxbXGubCMyDlUd7UkWzwbIayXwilBWh3aMWrMhJ5fet6cTPpZEh50wXegHRPII/D3ycL4WaIAXYZzD27Kos2aAc2rDxvXWxcFBeluejrjGlh4Pu0QFqAdqPDDy2/56n8ahN5flDnIXCfy4ujohNXpanUVIW7UxiTDeDvprD9WiA1gHZl6ueef6T4Vbk8hPxcnfxMNiom4qrwJMZrYZgUHOreVCGAPDrbdaMjzj2/55cGH1hDeTYyauuiuCjNxHInQsp9VWCCDv6c7psYFEYIsCPE6NC55x+pxRHI85HhrYuNT9JJT2CMh/QnZZwJ45U9ukBagKCDy24ddXRWmowOv23M5Fnr6qjoxbnwWMYYxmiBMQJjtUAsjBBA375wZQaNTkfk9a0biY+BlDMaUs4rjFEmsPdqKCWMECBU+6FGh9/xM83l1db14qLwy5BykkDucEYK/06S3yl7eBgliBZAvXkM2s83aD+k/DQTebFxRZqospQRIHdeMmAEQwklBhECbNZunrDtG41OsnZgg+QnsMNJ5fmo0P88KVj69ouM4Saw92qgkXIQIQAfH+HmMZz9SEZnMqRcPvN6ed66KD4c5PYwkNtDQbIpQ4Khz2WGaWHkICP1AbTxCf5ohWhf/lDp5O+Gkmeti+LZXHYwSPYLJgwWwrAgd0YIfxeiZ8B0fELNPv9QGY3OOOGwcnneOm98MBMcBPLHQMbzAvzZoHZBHmWP0gI0ZAzxBOQzkGJwePU3TwTth5NXGx9kIB2KgfLPPcpOon/kdasBrBfihteei7ZX/dINj0PlmW6w/NwdltPdUfFTNMpPRaPsZA+UnohByfEYFB+LRdHRWBQe6YmHP/ZEweG4f0XhkUR70ck+Q9UAXatrda2u1bWiHnP9Aw5IwHNzYU21AAAAAElFTkSuQmCC;" vertex="1" parent="63GN2_WQ_E0DW2pDX5st-13">
          <mxGeometry x="6" y="70" width="20" height="20" as="geometry" />
        </mxCell>
        <mxCell id="63GN2_WQ_E0DW2pDX5st-20" value="&lt;div style=&quot;text-align: justify;&quot;&gt;&lt;span style=&quot;background-color: initial;&quot;&gt;&lt;br&gt;&lt;/span&gt;&lt;/div&gt;&lt;div style=&quot;text-align: justify;&quot;&gt;&lt;span style=&quot;background-color: initial;&quot;&gt;+ Руководитель отдела тех.поддержки&lt;/span&gt;&lt;/div&gt;&lt;div style=&quot;text-align: justify;&quot;&gt;&lt;span style=&quot;background-color: initial;&quot;&gt;&lt;br&gt;&lt;/span&gt;&lt;/div&gt;&lt;div style=&quot;text-align: justify;&quot;&gt;&lt;span style=&quot;background-color: initial;&quot;&gt;+ Менеджер тех.поддержки&lt;/span&gt;&lt;/div&gt;&lt;div style=&quot;text-align: justify;&quot;&gt;&lt;span style=&quot;background-color: initial;&quot;&gt;&lt;br&gt;&lt;/span&gt;&lt;/div&gt;&lt;div style=&quot;text-align: justify;&quot;&gt;&lt;span style=&quot;background-color: initial;&quot;&gt;+ Специалист тех.поддержки&lt;/span&gt;&lt;/div&gt;&lt;div style=&quot;text-align: justify;&quot;&gt;&lt;br&gt;&lt;/div&gt;" style="shape=folder;fontStyle=1;spacingTop=10;tabWidth=120;tabHeight=30;tabPosition=left;html=1;whiteSpace=wrap;align=right;" vertex="1" parent="1">
          <mxGeometry x="-340" y="545" width="280" height="125" as="geometry" />
        </mxCell>
        <mxCell id="63GN2_WQ_E0DW2pDX5st-21" value="Отдел технической поддержки" style="text;html=1;align=center;verticalAlign=middle;whiteSpace=wrap;rounded=0;" vertex="1" parent="1">
          <mxGeometry x="-340" y="548" width="120" height="22.5" as="geometry" />
        </mxCell>
        <mxCell id="63GN2_WQ_E0DW2pDX5st-22" value="" style="shape=image;verticalLabelPosition=bottom;labelBackgroundColor=default;verticalAlign=top;aspect=fixed;imageAspect=0;image=data:image/png,iVBORw0KGgoAAAANSUhEUgAAADAAAAAwCAYAAABXAvmHAAAACXBIWXMAAAsTAAALEwEAmpwYAAAGwElEQVR4nO2Y6XMURRyG418BISEHlwrqB0EuhYicIpcSuRQBlfsQiIAgyGEU5BLxwLKQW0RQIAgEQvIFvhiIgQgm5M7m3uy9yW4Odvq1eqZ7pncys7vBKlNWpaueKmqmE573rV/3VCUqqmt1ra71/1/+rO7xvszoTF9WdKs/MwY+yo1YNMn0RGOGgjcjDt7rcfBcj4fnWjzc1+J97mvxt9zp8bM7N0BmdKY/qwdU+UwuH4tGNYAiHxwgAe70BLjSE+BMTzgMRD3RKQF8tPmsGHSwfTkAlXelJ8J1NRHOqwlbOyWA36z9jMjapwGcVxPhuNKL2K8kTu+EADGh278eSfuUXnBcSfQ60nsP+G8DZJq3742wfUWe0ht2yuXesF3uA9vvlL5ooFzqC+ulfrCm9UN92pMydRcpT6GWcuFp1FDO95eppvw2AFWUX59BpUKr5eyzN0rP9o9TA1D55ntz0OYvQZvkRWvAi5ZHHrS0edDc5oa/1Q1fiwu+Zheaml1o9DvR6HPC2+SAp8kBd6Mdbq8dLq8NTe58EMd5wHYGsJ0GGk4BDScA63HAehSoPwzU/QDUHQJqvwWpOQhSfQCkah9I5W4Qy06QilSQ8m0gZVtASjeClKwHKVoLUrgKUsFS+HPmoDZtyM2gAG0tFkW8zaMKU1GvzwFPI5Wzw+m2weFqgM1pRYO9HvW2OtRZa2C1lsNpzUOLLQOwnQKx7IZUuhVS6SeQSrZAKtkMqeRjSMWbIBVvhFT8EWODQtH6yGD7SfE6NOfOlbQRuvkciPcW4LoMuC6FIQ1wUi4CzguA8zxgPwdYT4BUfaWIm0pz2XWMDxUKUwTW6mDPi1K0/fRnC9dCDRCo3AtSfxyk9nuQ6kMg1d+CVH0tC5HKL0Es+0Ese0EqdoNU7AIp/xxS+WeQyj6FVLYdUuk2Xdtm0lyWy62BVLha4SHlAxPYHnn/GjWYGoDUHQOpMZPfB2LZA1LxhSCfCqlsB5Ono2IgbijNhGWpVQjIrGSsQKDABPpO3bdKDaYFqI1Avnyn0PoOoXU+KkbiwdKqsCy2HIGCZYylCvmcJQz2XIbvXc5YIQTokLxR63xUdOJm0qrkYsaiCOH7l8ihhADfdUxennV960biemlReCECf1PeF3jPBHHPQuVn8xcJAaq+Aak6aCKfGmJkWOvyjFPx1TpxselFOmEq9i5jAQIPwqDu1UIJAaj8gQjlN4VofaWBuIG0KjYfgQfzdLyjQ3w3n0EDLRACUPnK/QZjE4k8a12e8WUG4qI0FxBE789lvB0Gtk8IJgQQ73lh5kX5Yr28UeviqOjFmXSQ7FuMOTLSX5TZAsoz/l7brwTSAtDRYR+p9gdW33xKe3n1gAqtm4orwprkLMbMEMwSUILR3yEE2KN9pMpSdbdNqOb5yOhbNxbXGubCMyDlUd7UkWzwbIayXwilBWh3aMWrMhJ5fet6cTPpZEh50wXegHRPII/D3ycL4WaIAXYZzD27Kos2aAc2rDxvXWxcFBeluejrjGlh4Pu0QFqAdqPDDy2/56n8ahN5flDnIXCfy4ujohNXpanUVIW7UxiTDeDvprD9WiA1gHZl6ueef6T4Vbk8hPxcnfxMNiom4qrwJMZrYZgUHOreVCGAPDrbdaMjzj2/55cGH1hDeTYyauuiuCjNxHInQsp9VWCCDv6c7psYFEYIsCPE6NC55x+pxRHI85HhrYuNT9JJT2CMh/QnZZwJ45U9ukBagKCDy24ddXRWmowOv23M5Fnr6qjoxbnwWMYYxmiBMQJjtUAsjBBA375wZQaNTkfk9a0biY+BlDMaUs4rjFEmsPdqKCWMECBU+6FGh9/xM83l1db14qLwy5BykkDucEYK/06S3yl7eBgliBZAvXkM2s83aD+k/DQTebFxRZqospQRIHdeMmAEQwklBhECbNZunrDtG41OsnZgg+QnsMNJ5fmo0P88KVj69ouM4Saw92qgkXIQIQAfH+HmMZz9SEZnMqRcPvN6ed66KD4c5PYwkNtDQbIpQ4Khz2WGaWHkICP1AbTxCf5ohWhf/lDp5O+Gkmeti+LZXHYwSPYLJgwWwrAgd0YIfxeiZ8B0fELNPv9QGY3OOOGwcnneOm98MBMcBPLHQMbzAvzZoHZBHmWP0gI0ZAzxBOQzkGJwePU3TwTth5NXGx9kIB2KgfLPPcpOon/kdasBrBfihteei7ZX/dINj0PlmW6w/NwdltPdUfFTNMpPRaPsZA+UnohByfEYFB+LRdHRWBQe6YmHP/ZEweG4f0XhkUR70ck+Q9UAXatrda2u1bWiHnP9Aw5IwHNzYU21AAAAAElFTkSuQmCC;" vertex="1" parent="1">
          <mxGeometry x="-320" y="575" width="20" height="20" as="geometry" />
        </mxCell>
        <mxCell id="63GN2_WQ_E0DW2pDX5st-23" value="" style="shape=image;verticalLabelPosition=bottom;labelBackgroundColor=default;verticalAlign=top;aspect=fixed;imageAspect=0;image=data:image/png,iVBORw0KGgoAAAANSUhEUgAAADAAAAAwCAYAAABXAvmHAAAACXBIWXMAAAsTAAALEwEAmpwYAAAGwElEQVR4nO2Y6XMURRyG418BISEHlwrqB0EuhYicIpcSuRQBlfsQiIAgyGEU5BLxwLKQW0RQIAgEQvIFvhiIgQgm5M7m3uy9yW4Odvq1eqZ7pncys7vBKlNWpaueKmqmE573rV/3VCUqqmt1ra71/1/+rO7xvszoTF9WdKs/MwY+yo1YNMn0RGOGgjcjDt7rcfBcj4fnWjzc1+J97mvxt9zp8bM7N0BmdKY/qwdU+UwuH4tGNYAiHxwgAe70BLjSE+BMTzgMRD3RKQF8tPmsGHSwfTkAlXelJ8J1NRHOqwlbOyWA36z9jMjapwGcVxPhuNKL2K8kTu+EADGh278eSfuUXnBcSfQ60nsP+G8DZJq3742wfUWe0ht2yuXesF3uA9vvlL5ooFzqC+ulfrCm9UN92pMydRcpT6GWcuFp1FDO95eppvw2AFWUX59BpUKr5eyzN0rP9o9TA1D55ntz0OYvQZvkRWvAi5ZHHrS0edDc5oa/1Q1fiwu+Zheaml1o9DvR6HPC2+SAp8kBd6Mdbq8dLq8NTe58EMd5wHYGsJ0GGk4BDScA63HAehSoPwzU/QDUHQJqvwWpOQhSfQCkah9I5W4Qy06QilSQ8m0gZVtASjeClKwHKVoLUrgKUsFS+HPmoDZtyM2gAG0tFkW8zaMKU1GvzwFPI5Wzw+m2weFqgM1pRYO9HvW2OtRZa2C1lsNpzUOLLQOwnQKx7IZUuhVS6SeQSrZAKtkMqeRjSMWbIBVvhFT8EWODQtH6yGD7SfE6NOfOlbQRuvkciPcW4LoMuC6FIQ1wUi4CzguA8zxgPwdYT4BUfaWIm0pz2XWMDxUKUwTW6mDPi1K0/fRnC9dCDRCo3AtSfxyk9nuQ6kMg1d+CVH0tC5HKL0Es+0Ese0EqdoNU7AIp/xxS+WeQyj6FVLYdUuk2Xdtm0lyWy62BVLha4SHlAxPYHnn/GjWYGoDUHQOpMZPfB2LZA1LxhSCfCqlsB5Ono2IgbijNhGWpVQjIrGSsQKDABPpO3bdKDaYFqI1Avnyn0PoOoXU+KkbiwdKqsCy2HIGCZYylCvmcJQz2XIbvXc5YIQTokLxR63xUdOJm0qrkYsaiCOH7l8ihhADfdUxennV960biemlReCECf1PeF3jPBHHPQuVn8xcJAaq+Aak6aCKfGmJkWOvyjFPx1TpxselFOmEq9i5jAQIPwqDu1UIJAaj8gQjlN4VofaWBuIG0KjYfgQfzdLyjQ3w3n0EDLRACUPnK/QZjE4k8a12e8WUG4qI0FxBE789lvB0Gtk8IJgQQ73lh5kX5Yr28UeviqOjFmXSQ7FuMOTLSX5TZAsoz/l7brwTSAtDRYR+p9gdW33xKe3n1gAqtm4orwprkLMbMEMwSUILR3yEE2KN9pMpSdbdNqOb5yOhbNxbXGubCMyDlUd7UkWzwbIayXwilBWh3aMWrMhJ5fet6cTPpZEh50wXegHRPII/D3ycL4WaIAXYZzD27Kos2aAc2rDxvXWxcFBeluejrjGlh4Pu0QFqAdqPDDy2/56n8ahN5flDnIXCfy4ujohNXpanUVIW7UxiTDeDvprD9WiA1gHZl6ueef6T4Vbk8hPxcnfxMNiom4qrwJMZrYZgUHOreVCGAPDrbdaMjzj2/55cGH1hDeTYyauuiuCjNxHInQsp9VWCCDv6c7psYFEYIsCPE6NC55x+pxRHI85HhrYuNT9JJT2CMh/QnZZwJ45U9ukBagKCDy24ddXRWmowOv23M5Fnr6qjoxbnwWMYYxmiBMQJjtUAsjBBA375wZQaNTkfk9a0biY+BlDMaUs4rjFEmsPdqKCWMECBU+6FGh9/xM83l1db14qLwy5BykkDucEYK/06S3yl7eBgliBZAvXkM2s83aD+k/DQTebFxRZqospQRIHdeMmAEQwklBhECbNZunrDtG41OsnZgg+QnsMNJ5fmo0P88KVj69ouM4Saw92qgkXIQIQAfH+HmMZz9SEZnMqRcPvN6ed66KD4c5PYwkNtDQbIpQ4Khz2WGaWHkICP1AbTxCf5ohWhf/lDp5O+Gkmeti+LZXHYwSPYLJgwWwrAgd0YIfxeiZ8B0fELNPv9QGY3OOOGwcnneOm98MBMcBPLHQMbzAvzZoHZBHmWP0gI0ZAzxBOQzkGJwePU3TwTth5NXGx9kIB2KgfLPPcpOon/kdasBrBfihteei7ZX/dINj0PlmW6w/NwdltPdUfFTNMpPRaPsZA+UnohByfEYFB+LRdHRWBQe6YmHP/ZEweG4f0XhkUR70ck+Q9UAXatrda2u1bWiHnP9Aw5IwHNzYU21AAAAAElFTkSuQmCC;" vertex="1" parent="1">
          <mxGeometry x="-320" y="605" width="20" height="20" as="geometry" />
        </mxCell>
        <mxCell id="63GN2_WQ_E0DW2pDX5st-29" value="" style="group" vertex="1" connectable="0" parent="1">
          <mxGeometry x="-330" y="900" width="180" height="80" as="geometry" />
        </mxCell>
        <mxCell id="63GN2_WQ_E0DW2pDX5st-25" value="&lt;div style=&quot;text-align: justify;&quot;&gt;&lt;span style=&quot;background-color: initial;&quot;&gt;&lt;br&gt;&lt;/span&gt;&lt;/div&gt;&lt;div style=&quot;text-align: justify;&quot;&gt;&lt;span style=&quot;background-color: initial;&quot;&gt;&lt;br&gt;&lt;/span&gt;&lt;/div&gt;&lt;div style=&quot;text-align: justify;&quot;&gt;&lt;span style=&quot;background-color: initial;&quot;&gt;+ Заведующий складом&lt;/span&gt;&lt;br&gt;&lt;/div&gt;&lt;div style=&quot;text-align: justify;&quot;&gt;&lt;span style=&quot;background-color: initial;&quot;&gt;&lt;br&gt;&lt;/span&gt;&lt;/div&gt;&lt;div style=&quot;text-align: justify;&quot;&gt;&lt;span style=&quot;background-color: initial;&quot;&gt;+ Менеджер по складу&lt;/span&gt;&lt;/div&gt;&lt;div style=&quot;text-align: justify;&quot;&gt;&lt;br&gt;&lt;/div&gt;" style="shape=folder;fontStyle=1;spacingTop=10;tabWidth=120;tabHeight=30;tabPosition=left;html=1;whiteSpace=wrap;align=right;" vertex="1" parent="63GN2_WQ_E0DW2pDX5st-29">
          <mxGeometry width="180" height="80" as="geometry" />
        </mxCell>
        <mxCell id="63GN2_WQ_E0DW2pDX5st-26" value="Отдел логистики" style="text;html=1;align=center;verticalAlign=middle;whiteSpace=wrap;rounded=0;" vertex="1" parent="63GN2_WQ_E0DW2pDX5st-29">
          <mxGeometry y="4.5" width="120" height="22.5" as="geometry" />
        </mxCell>
        <mxCell id="63GN2_WQ_E0DW2pDX5st-27" value="" style="shape=image;verticalLabelPosition=bottom;labelBackgroundColor=default;verticalAlign=top;aspect=fixed;imageAspect=0;image=data:image/png,iVBORw0KGgoAAAANSUhEUgAAADAAAAAwCAYAAABXAvmHAAAACXBIWXMAAAsTAAALEwEAmpwYAAAGwElEQVR4nO2Y6XMURRyG418BISEHlwrqB0EuhYicIpcSuRQBlfsQiIAgyGEU5BLxwLKQW0RQIAgEQvIFvhiIgQgm5M7m3uy9yW4Odvq1eqZ7pncys7vBKlNWpaueKmqmE573rV/3VCUqqmt1ra71/1/+rO7xvszoTF9WdKs/MwY+yo1YNMn0RGOGgjcjDt7rcfBcj4fnWjzc1+J97mvxt9zp8bM7N0BmdKY/qwdU+UwuH4tGNYAiHxwgAe70BLjSE+BMTzgMRD3RKQF8tPmsGHSwfTkAlXelJ8J1NRHOqwlbOyWA36z9jMjapwGcVxPhuNKL2K8kTu+EADGh278eSfuUXnBcSfQ60nsP+G8DZJq3742wfUWe0ht2yuXesF3uA9vvlL5ooFzqC+ulfrCm9UN92pMydRcpT6GWcuFp1FDO95eppvw2AFWUX59BpUKr5eyzN0rP9o9TA1D55ntz0OYvQZvkRWvAi5ZHHrS0edDc5oa/1Q1fiwu+Zheaml1o9DvR6HPC2+SAp8kBd6Mdbq8dLq8NTe58EMd5wHYGsJ0GGk4BDScA63HAehSoPwzU/QDUHQJqvwWpOQhSfQCkah9I5W4Qy06QilSQ8m0gZVtASjeClKwHKVoLUrgKUsFS+HPmoDZtyM2gAG0tFkW8zaMKU1GvzwFPI5Wzw+m2weFqgM1pRYO9HvW2OtRZa2C1lsNpzUOLLQOwnQKx7IZUuhVS6SeQSrZAKtkMqeRjSMWbIBVvhFT8EWODQtH6yGD7SfE6NOfOlbQRuvkciPcW4LoMuC6FIQ1wUi4CzguA8zxgPwdYT4BUfaWIm0pz2XWMDxUKUwTW6mDPi1K0/fRnC9dCDRCo3AtSfxyk9nuQ6kMg1d+CVH0tC5HKL0Es+0Ese0EqdoNU7AIp/xxS+WeQyj6FVLYdUuk2Xdtm0lyWy62BVLha4SHlAxPYHnn/GjWYGoDUHQOpMZPfB2LZA1LxhSCfCqlsB5Ono2IgbijNhGWpVQjIrGSsQKDABPpO3bdKDaYFqI1Avnyn0PoOoXU+KkbiwdKqsCy2HIGCZYylCvmcJQz2XIbvXc5YIQTokLxR63xUdOJm0qrkYsaiCOH7l8ihhADfdUxennV960biemlReCECf1PeF3jPBHHPQuVn8xcJAaq+Aak6aCKfGmJkWOvyjFPx1TpxselFOmEq9i5jAQIPwqDu1UIJAaj8gQjlN4VofaWBuIG0KjYfgQfzdLyjQ3w3n0EDLRACUPnK/QZjE4k8a12e8WUG4qI0FxBE789lvB0Gtk8IJgQQ73lh5kX5Yr28UeviqOjFmXSQ7FuMOTLSX5TZAsoz/l7brwTSAtDRYR+p9gdW33xKe3n1gAqtm4orwprkLMbMEMwSUILR3yEE2KN9pMpSdbdNqOb5yOhbNxbXGubCMyDlUd7UkWzwbIayXwilBWh3aMWrMhJ5fet6cTPpZEh50wXegHRPII/D3ycL4WaIAXYZzD27Kos2aAc2rDxvXWxcFBeluejrjGlh4Pu0QFqAdqPDDy2/56n8ahN5flDnIXCfy4ujohNXpanUVIW7UxiTDeDvprD9WiA1gHZl6ueef6T4Vbk8hPxcnfxMNiom4qrwJMZrYZgUHOreVCGAPDrbdaMjzj2/55cGH1hDeTYyauuiuCjNxHInQsp9VWCCDv6c7psYFEYIsCPE6NC55x+pxRHI85HhrYuNT9JJT2CMh/QnZZwJ45U9ukBagKCDy24ddXRWmowOv23M5Fnr6qjoxbnwWMYYxmiBMQJjtUAsjBBA375wZQaNTkfk9a0biY+BlDMaUs4rjFEmsPdqKCWMECBU+6FGh9/xM83l1db14qLwy5BykkDucEYK/06S3yl7eBgliBZAvXkM2s83aD+k/DQTebFxRZqospQRIHdeMmAEQwklBhECbNZunrDtG41OsnZgg+QnsMNJ5fmo0P88KVj69ouM4Saw92qgkXIQIQAfH+HmMZz9SEZnMqRcPvN6ed66KD4c5PYwkNtDQbIpQ4Khz2WGaWHkICP1AbTxCf5ohWhf/lDp5O+Gkmeti+LZXHYwSPYLJgwWwrAgd0YIfxeiZ8B0fELNPv9QGY3OOOGwcnneOm98MBMcBPLHQMbzAvzZoHZBHmWP0gI0ZAzxBOQzkGJwePU3TwTth5NXGx9kIB2KgfLPPcpOon/kdasBrBfihteei7ZX/dINj0PlmW6w/NwdltPdUfFTNMpPRaPsZA+UnohByfEYFB+LRdHRWBQe6YmHP/ZEweG4f0XhkUR70ck+Q9UAXatrda2u1bWiHnP9Aw5IwHNzYU21AAAAAElFTkSuQmCC;" vertex="1" parent="63GN2_WQ_E0DW2pDX5st-29">
          <mxGeometry x="10" y="30" width="20" height="20" as="geometry" />
        </mxCell>
        <mxCell id="63GN2_WQ_E0DW2pDX5st-28" value="" style="shape=image;verticalLabelPosition=bottom;labelBackgroundColor=default;verticalAlign=top;aspect=fixed;imageAspect=0;image=data:image/png,iVBORw0KGgoAAAANSUhEUgAAADAAAAAwCAYAAABXAvmHAAAACXBIWXMAAAsTAAALEwEAmpwYAAAGwElEQVR4nO2Y6XMURRyG418BISEHlwrqB0EuhYicIpcSuRQBlfsQiIAgyGEU5BLxwLKQW0RQIAgEQvIFvhiIgQgm5M7m3uy9yW4Odvq1eqZ7pncys7vBKlNWpaueKmqmE573rV/3VCUqqmt1ra71/1/+rO7xvszoTF9WdKs/MwY+yo1YNMn0RGOGgjcjDt7rcfBcj4fnWjzc1+J97mvxt9zp8bM7N0BmdKY/qwdU+UwuH4tGNYAiHxwgAe70BLjSE+BMTzgMRD3RKQF8tPmsGHSwfTkAlXelJ8J1NRHOqwlbOyWA36z9jMjapwGcVxPhuNKL2K8kTu+EADGh278eSfuUXnBcSfQ60nsP+G8DZJq3742wfUWe0ht2yuXesF3uA9vvlL5ooFzqC+ulfrCm9UN92pMydRcpT6GWcuFp1FDO95eppvw2AFWUX59BpUKr5eyzN0rP9o9TA1D55ntz0OYvQZvkRWvAi5ZHHrS0edDc5oa/1Q1fiwu+Zheaml1o9DvR6HPC2+SAp8kBd6Mdbq8dLq8NTe58EMd5wHYGsJ0GGk4BDScA63HAehSoPwzU/QDUHQJqvwWpOQhSfQCkah9I5W4Qy06QilSQ8m0gZVtASjeClKwHKVoLUrgKUsFS+HPmoDZtyM2gAG0tFkW8zaMKU1GvzwFPI5Wzw+m2weFqgM1pRYO9HvW2OtRZa2C1lsNpzUOLLQOwnQKx7IZUuhVS6SeQSrZAKtkMqeRjSMWbIBVvhFT8EWODQtH6yGD7SfE6NOfOlbQRuvkciPcW4LoMuC6FIQ1wUi4CzguA8zxgPwdYT4BUfaWIm0pz2XWMDxUKUwTW6mDPi1K0/fRnC9dCDRCo3AtSfxyk9nuQ6kMg1d+CVH0tC5HKL0Es+0Ese0EqdoNU7AIp/xxS+WeQyj6FVLYdUuk2Xdtm0lyWy62BVLha4SHlAxPYHnn/GjWYGoDUHQOpMZPfB2LZA1LxhSCfCqlsB5Ono2IgbijNhGWpVQjIrGSsQKDABPpO3bdKDaYFqI1Avnyn0PoOoXU+KkbiwdKqsCy2HIGCZYylCvmcJQz2XIbvXc5YIQTokLxR63xUdOJm0qrkYsaiCOH7l8ihhADfdUxennV960biemlReCECf1PeF3jPBHHPQuVn8xcJAaq+Aak6aCKfGmJkWOvyjFPx1TpxselFOmEq9i5jAQIPwqDu1UIJAaj8gQjlN4VofaWBuIG0KjYfgQfzdLyjQ3w3n0EDLRACUPnK/QZjE4k8a12e8WUG4qI0FxBE789lvB0Gtk8IJgQQ73lh5kX5Yr28UeviqOjFmXSQ7FuMOTLSX5TZAsoz/l7brwTSAtDRYR+p9gdW33xKe3n1gAqtm4orwprkLMbMEMwSUILR3yEE2KN9pMpSdbdNqOb5yOhbNxbXGubCMyDlUd7UkWzwbIayXwilBWh3aMWrMhJ5fet6cTPpZEh50wXegHRPII/D3ycL4WaIAXYZzD27Kos2aAc2rDxvXWxcFBeluejrjGlh4Pu0QFqAdqPDDy2/56n8ahN5flDnIXCfy4ujohNXpanUVIW7UxiTDeDvprD9WiA1gHZl6ueef6T4Vbk8hPxcnfxMNiom4qrwJMZrYZgUHOreVCGAPDrbdaMjzj2/55cGH1hDeTYyauuiuCjNxHInQsp9VWCCDv6c7psYFEYIsCPE6NC55x+pxRHI85HhrYuNT9JJT2CMh/QnZZwJ45U9ukBagKCDy24ddXRWmowOv23M5Fnr6qjoxbnwWMYYxmiBMQJjtUAsjBBA375wZQaNTkfk9a0biY+BlDMaUs4rjFEmsPdqKCWMECBU+6FGh9/xM83l1db14qLwy5BykkDucEYK/06S3yl7eBgliBZAvXkM2s83aD+k/DQTebFxRZqospQRIHdeMmAEQwklBhECbNZunrDtG41OsnZgg+QnsMNJ5fmo0P88KVj69ouM4Saw92qgkXIQIQAfH+HmMZz9SEZnMqRcPvN6ed66KD4c5PYwkNtDQbIpQ4Khz2WGaWHkICP1AbTxCf5ohWhf/lDp5O+Gkmeti+LZXHYwSPYLJgwWwrAgd0YIfxeiZ8B0fELNPv9QGY3OOOGwcnneOm98MBMcBPLHQMbzAvzZoHZBHmWP0gI0ZAzxBOQzkGJwePU3TwTth5NXGx9kIB2KgfLPPcpOon/kdasBrBfihteei7ZX/dINj0PlmW6w/NwdltPdUfFTNMpPRaPsZA+UnohByfEYFB+LRdHRWBQe6YmHP/ZEweG4f0XhkUR70ck+Q9UAXatrda2u1bWiHnP9Aw5IwHNzYU21AAAAAElFTkSuQmCC;" vertex="1" parent="63GN2_WQ_E0DW2pDX5st-29">
          <mxGeometry x="10" y="59" width="20" height="20" as="geometry" />
        </mxCell>
        <mxCell id="63GN2_WQ_E0DW2pDX5st-34" value="&lt;div style=&quot;text-align: justify;&quot;&gt;&lt;span style=&quot;background-color: initial;&quot;&gt;+ Руководитель отдела продаж&lt;/span&gt;&lt;/div&gt;&lt;div style=&quot;text-align: justify;&quot;&gt;&lt;span style=&quot;background-color: initial;&quot;&gt;&lt;br&gt;&lt;/span&gt;&lt;/div&gt;&lt;div style=&quot;text-align: justify;&quot;&gt;&lt;span style=&quot;background-color: initial;&quot;&gt;+ Менеджер по продажам&lt;/span&gt;&lt;/div&gt;&lt;div style=&quot;text-align: justify;&quot;&gt;&lt;span style=&quot;background-color: initial;&quot;&gt;&lt;br&gt;&lt;/span&gt;&lt;/div&gt;&lt;div style=&quot;text-align: justify;&quot;&gt;&lt;span style=&quot;background-color: initial;&quot;&gt;+ Продавец-кассир&lt;/span&gt;&lt;/div&gt;" style="shape=folder;fontStyle=1;spacingTop=10;tabWidth=100;tabHeight=30;tabPosition=left;html=1;whiteSpace=wrap;align=right;" vertex="1" parent="1">
          <mxGeometry x="250" y="610" width="240" height="120" as="geometry" />
        </mxCell>
        <mxCell id="63GN2_WQ_E0DW2pDX5st-35" value="Отдел продаж" style="text;html=1;align=center;verticalAlign=middle;whiteSpace=wrap;rounded=0;" vertex="1" parent="1">
          <mxGeometry x="250" y="611" width="100" height="22.5" as="geometry" />
        </mxCell>
        <mxCell id="63GN2_WQ_E0DW2pDX5st-36" value="" style="shape=image;verticalLabelPosition=bottom;labelBackgroundColor=default;verticalAlign=top;aspect=fixed;imageAspect=0;image=data:image/png,iVBORw0KGgoAAAANSUhEUgAAADAAAAAwCAYAAABXAvmHAAAACXBIWXMAAAsTAAALEwEAmpwYAAAGwElEQVR4nO2Y6XMURRyG418BISEHlwrqB0EuhYicIpcSuRQBlfsQiIAgyGEU5BLxwLKQW0RQIAgEQvIFvhiIgQgm5M7m3uy9yW4Odvq1eqZ7pncys7vBKlNWpaueKmqmE573rV/3VCUqqmt1ra71/1/+rO7xvszoTF9WdKs/MwY+yo1YNMn0RGOGgjcjDt7rcfBcj4fnWjzc1+J97mvxt9zp8bM7N0BmdKY/qwdU+UwuH4tGNYAiHxwgAe70BLjSE+BMTzgMRD3RKQF8tPmsGHSwfTkAlXelJ8J1NRHOqwlbOyWA36z9jMjapwGcVxPhuNKL2K8kTu+EADGh278eSfuUXnBcSfQ60nsP+G8DZJq3742wfUWe0ht2yuXesF3uA9vvlL5ooFzqC+ulfrCm9UN92pMydRcpT6GWcuFp1FDO95eppvw2AFWUX59BpUKr5eyzN0rP9o9TA1D55ntz0OYvQZvkRWvAi5ZHHrS0edDc5oa/1Q1fiwu+Zheaml1o9DvR6HPC2+SAp8kBd6Mdbq8dLq8NTe58EMd5wHYGsJ0GGk4BDScA63HAehSoPwzU/QDUHQJqvwWpOQhSfQCkah9I5W4Qy06QilSQ8m0gZVtASjeClKwHKVoLUrgKUsFS+HPmoDZtyM2gAG0tFkW8zaMKU1GvzwFPI5Wzw+m2weFqgM1pRYO9HvW2OtRZa2C1lsNpzUOLLQOwnQKx7IZUuhVS6SeQSrZAKtkMqeRjSMWbIBVvhFT8EWODQtH6yGD7SfE6NOfOlbQRuvkciPcW4LoMuC6FIQ1wUi4CzguA8zxgPwdYT4BUfaWIm0pz2XWMDxUKUwTW6mDPi1K0/fRnC9dCDRCo3AtSfxyk9nuQ6kMg1d+CVH0tC5HKL0Es+0Ese0EqdoNU7AIp/xxS+WeQyj6FVLYdUuk2Xdtm0lyWy62BVLha4SHlAxPYHnn/GjWYGoDUHQOpMZPfB2LZA1LxhSCfCqlsB5Ono2IgbijNhGWpVQjIrGSsQKDABPpO3bdKDaYFqI1Avnyn0PoOoXU+KkbiwdKqsCy2HIGCZYylCvmcJQz2XIbvXc5YIQTokLxR63xUdOJm0qrkYsaiCOH7l8ihhADfdUxennV960biemlReCECf1PeF3jPBHHPQuVn8xcJAaq+Aak6aCKfGmJkWOvyjFPx1TpxselFOmEq9i5jAQIPwqDu1UIJAaj8gQjlN4VofaWBuIG0KjYfgQfzdLyjQ3w3n0EDLRACUPnK/QZjE4k8a12e8WUG4qI0FxBE789lvB0Gtk8IJgQQ73lh5kX5Yr28UeviqOjFmXSQ7FuMOTLSX5TZAsoz/l7brwTSAtDRYR+p9gdW33xKe3n1gAqtm4orwprkLMbMEMwSUILR3yEE2KN9pMpSdbdNqOb5yOhbNxbXGubCMyDlUd7UkWzwbIayXwilBWh3aMWrMhJ5fet6cTPpZEh50wXegHRPII/D3ycL4WaIAXYZzD27Kos2aAc2rDxvXWxcFBeluejrjGlh4Pu0QFqAdqPDDy2/56n8ahN5flDnIXCfy4ujohNXpanUVIW7UxiTDeDvprD9WiA1gHZl6ueef6T4Vbk8hPxcnfxMNiom4qrwJMZrYZgUHOreVCGAPDrbdaMjzj2/55cGH1hDeTYyauuiuCjNxHInQsp9VWCCDv6c7psYFEYIsCPE6NC55x+pxRHI85HhrYuNT9JJT2CMh/QnZZwJ45U9ukBagKCDy24ddXRWmowOv23M5Fnr6qjoxbnwWMYYxmiBMQJjtUAsjBBA375wZQaNTkfk9a0biY+BlDMaUs4rjFEmsPdqKCWMECBU+6FGh9/xM83l1db14qLwy5BykkDucEYK/06S3yl7eBgliBZAvXkM2s83aD+k/DQTebFxRZqospQRIHdeMmAEQwklBhECbNZunrDtG41OsnZgg+QnsMNJ5fmo0P88KVj69ouM4Saw92qgkXIQIQAfH+HmMZz9SEZnMqRcPvN6ed66KD4c5PYwkNtDQbIpQ4Khz2WGaWHkICP1AbTxCf5ohWhf/lDp5O+Gkmeti+LZXHYwSPYLJgwWwrAgd0YIfxeiZ8B0fELNPv9QGY3OOOGwcnneOm98MBMcBPLHQMbzAvzZoHZBHmWP0gI0ZAzxBOQzkGJwePU3TwTth5NXGx9kIB2KgfLPPcpOon/kdasBrBfihteei7ZX/dINj0PlmW6w/NwdltPdUfFTNMpPRaPsZA+UnohByfEYFB+LRdHRWBQe6YmHP/ZEweG4f0XhkUR70ck+Q9UAXatrda2u1bWiHnP9Aw5IwHNzYU21AAAAAElFTkSuQmCC;" vertex="1" parent="1">
          <mxGeometry x="270" y="640" width="20" height="20" as="geometry" />
        </mxCell>
        <mxCell id="63GN2_WQ_E0DW2pDX5st-37" value="" style="shape=image;verticalLabelPosition=bottom;labelBackgroundColor=default;verticalAlign=top;aspect=fixed;imageAspect=0;image=data:image/png,iVBORw0KGgoAAAANSUhEUgAAADAAAAAwCAYAAABXAvmHAAAACXBIWXMAAAsTAAALEwEAmpwYAAAGwElEQVR4nO2Y6XMURRyG418BISEHlwrqB0EuhYicIpcSuRQBlfsQiIAgyGEU5BLxwLKQW0RQIAgEQvIFvhiIgQgm5M7m3uy9yW4Odvq1eqZ7pncys7vBKlNWpaueKmqmE573rV/3VCUqqmt1ra71/1/+rO7xvszoTF9WdKs/MwY+yo1YNMn0RGOGgjcjDt7rcfBcj4fnWjzc1+J97mvxt9zp8bM7N0BmdKY/qwdU+UwuH4tGNYAiHxwgAe70BLjSE+BMTzgMRD3RKQF8tPmsGHSwfTkAlXelJ8J1NRHOqwlbOyWA36z9jMjapwGcVxPhuNKL2K8kTu+EADGh278eSfuUXnBcSfQ60nsP+G8DZJq3742wfUWe0ht2yuXesF3uA9vvlL5ooFzqC+ulfrCm9UN92pMydRcpT6GWcuFp1FDO95eppvw2AFWUX59BpUKr5eyzN0rP9o9TA1D55ntz0OYvQZvkRWvAi5ZHHrS0edDc5oa/1Q1fiwu+Zheaml1o9DvR6HPC2+SAp8kBd6Mdbq8dLq8NTe58EMd5wHYGsJ0GGk4BDScA63HAehSoPwzU/QDUHQJqvwWpOQhSfQCkah9I5W4Qy06QilSQ8m0gZVtASjeClKwHKVoLUrgKUsFS+HPmoDZtyM2gAG0tFkW8zaMKU1GvzwFPI5Wzw+m2weFqgM1pRYO9HvW2OtRZa2C1lsNpzUOLLQOwnQKx7IZUuhVS6SeQSrZAKtkMqeRjSMWbIBVvhFT8EWODQtH6yGD7SfE6NOfOlbQRuvkciPcW4LoMuC6FIQ1wUi4CzguA8zxgPwdYT4BUfaWIm0pz2XWMDxUKUwTW6mDPi1K0/fRnC9dCDRCo3AtSfxyk9nuQ6kMg1d+CVH0tC5HKL0Es+0Ese0EqdoNU7AIp/xxS+WeQyj6FVLYdUuk2Xdtm0lyWy62BVLha4SHlAxPYHnn/GjWYGoDUHQOpMZPfB2LZA1LxhSCfCqlsB5Ono2IgbijNhGWpVQjIrGSsQKDABPpO3bdKDaYFqI1Avnyn0PoOoXU+KkbiwdKqsCy2HIGCZYylCvmcJQz2XIbvXc5YIQTokLxR63xUdOJm0qrkYsaiCOH7l8ihhADfdUxennV960biemlReCECf1PeF3jPBHHPQuVn8xcJAaq+Aak6aCKfGmJkWOvyjFPx1TpxselFOmEq9i5jAQIPwqDu1UIJAaj8gQjlN4VofaWBuIG0KjYfgQfzdLyjQ3w3n0EDLRACUPnK/QZjE4k8a12e8WUG4qI0FxBE789lvB0Gtk8IJgQQ73lh5kX5Yr28UeviqOjFmXSQ7FuMOTLSX5TZAsoz/l7brwTSAtDRYR+p9gdW33xKe3n1gAqtm4orwprkLMbMEMwSUILR3yEE2KN9pMpSdbdNqOb5yOhbNxbXGubCMyDlUd7UkWzwbIayXwilBWh3aMWrMhJ5fet6cTPpZEh50wXegHRPII/D3ycL4WaIAXYZzD27Kos2aAc2rDxvXWxcFBeluejrjGlh4Pu0QFqAdqPDDy2/56n8ahN5flDnIXCfy4ujohNXpanUVIW7UxiTDeDvprD9WiA1gHZl6ueef6T4Vbk8hPxcnfxMNiom4qrwJMZrYZgUHOreVCGAPDrbdaMjzj2/55cGH1hDeTYyauuiuCjNxHInQsp9VWCCDv6c7psYFEYIsCPE6NC55x+pxRHI85HhrYuNT9JJT2CMh/QnZZwJ45U9ukBagKCDy24ddXRWmowOv23M5Fnr6qjoxbnwWMYYxmiBMQJjtUAsjBBA375wZQaNTkfk9a0biY+BlDMaUs4rjFEmsPdqKCWMECBU+6FGh9/xM83l1db14qLwy5BykkDucEYK/06S3yl7eBgliBZAvXkM2s83aD+k/DQTebFxRZqospQRIHdeMmAEQwklBhECbNZunrDtG41OsnZgg+QnsMNJ5fmo0P88KVj69ouM4Saw92qgkXIQIQAfH+HmMZz9SEZnMqRcPvN6ed66KD4c5PYwkNtDQbIpQ4Khz2WGaWHkICP1AbTxCf5ohWhf/lDp5O+Gkmeti+LZXHYwSPYLJgwWwrAgd0YIfxeiZ8B0fELNPv9QGY3OOOGwcnneOm98MBMcBPLHQMbzAvzZoHZBHmWP0gI0ZAzxBOQzkGJwePU3TwTth5NXGx9kIB2KgfLPPcpOon/kdasBrBfihteei7ZX/dINj0PlmW6w/NwdltPdUfFTNMpPRaPsZA+UnohByfEYFB+LRdHRWBQe6YmHP/ZEweG4f0XhkUR70ck+Q9UAXatrda2u1bWiHnP9Aw5IwHNzYU21AAAAAElFTkSuQmCC;" vertex="1" parent="1">
          <mxGeometry x="270" y="668" width="20" height="20" as="geometry" />
        </mxCell>
        <mxCell id="63GN2_WQ_E0DW2pDX5st-39" value="&lt;div style=&quot;text-align: justify;&quot;&gt;&lt;br&gt;&lt;/div&gt;&lt;div style=&quot;text-align: justify;&quot;&gt;&lt;span style=&quot;background-color: initial;&quot;&gt;+ Руководитель отдела тех.обслуживания&lt;/span&gt;&lt;/div&gt;&lt;div style=&quot;text-align: justify;&quot;&gt;&lt;span style=&quot;background-color: initial;&quot;&gt;&lt;br&gt;&lt;/span&gt;&lt;/div&gt;&lt;div style=&quot;text-align: justify;&quot;&gt;&lt;span style=&quot;background-color: initial;&quot;&gt;+ Менеджер техническим заявкам&lt;/span&gt;&lt;/div&gt;&lt;div style=&quot;text-align: justify;&quot;&gt;&lt;span style=&quot;background-color: initial;&quot;&gt;&lt;br&gt;&lt;/span&gt;&lt;/div&gt;&lt;div style=&quot;text-align: justify;&quot;&gt;&lt;span style=&quot;background-color: initial;&quot;&gt;+ Инженер-ремонтник&lt;/span&gt;&lt;/div&gt;&lt;div style=&quot;text-align: justify;&quot;&gt;&lt;br&gt;&lt;/div&gt;" style="shape=folder;fontStyle=1;spacingTop=10;tabWidth=120;tabHeight=30;tabPosition=left;html=1;whiteSpace=wrap;align=right;" vertex="1" parent="1">
          <mxGeometry x="250" y="840" width="300" height="130" as="geometry" />
        </mxCell>
        <mxCell id="63GN2_WQ_E0DW2pDX5st-40" value="Отдел технического обслуживания" style="text;html=1;align=center;verticalAlign=middle;whiteSpace=wrap;rounded=0;" vertex="1" parent="1">
          <mxGeometry x="250" y="843" width="120" height="22.5" as="geometry" />
        </mxCell>
        <mxCell id="63GN2_WQ_E0DW2pDX5st-41" value="" style="shape=image;verticalLabelPosition=bottom;labelBackgroundColor=default;verticalAlign=top;aspect=fixed;imageAspect=0;image=data:image/png,iVBORw0KGgoAAAANSUhEUgAAADAAAAAwCAYAAABXAvmHAAAACXBIWXMAAAsTAAALEwEAmpwYAAAGwElEQVR4nO2Y6XMURRyG418BISEHlwrqB0EuhYicIpcSuRQBlfsQiIAgyGEU5BLxwLKQW0RQIAgEQvIFvhiIgQgm5M7m3uy9yW4Odvq1eqZ7pncys7vBKlNWpaueKmqmE573rV/3VCUqqmt1ra71/1/+rO7xvszoTF9WdKs/MwY+yo1YNMn0RGOGgjcjDt7rcfBcj4fnWjzc1+J97mvxt9zp8bM7N0BmdKY/qwdU+UwuH4tGNYAiHxwgAe70BLjSE+BMTzgMRD3RKQF8tPmsGHSwfTkAlXelJ8J1NRHOqwlbOyWA36z9jMjapwGcVxPhuNKL2K8kTu+EADGh278eSfuUXnBcSfQ60nsP+G8DZJq3742wfUWe0ht2yuXesF3uA9vvlL5ooFzqC+ulfrCm9UN92pMydRcpT6GWcuFp1FDO95eppvw2AFWUX59BpUKr5eyzN0rP9o9TA1D55ntz0OYvQZvkRWvAi5ZHHrS0edDc5oa/1Q1fiwu+Zheaml1o9DvR6HPC2+SAp8kBd6Mdbq8dLq8NTe58EMd5wHYGsJ0GGk4BDScA63HAehSoPwzU/QDUHQJqvwWpOQhSfQCkah9I5W4Qy06QilSQ8m0gZVtASjeClKwHKVoLUrgKUsFS+HPmoDZtyM2gAG0tFkW8zaMKU1GvzwFPI5Wzw+m2weFqgM1pRYO9HvW2OtRZa2C1lsNpzUOLLQOwnQKx7IZUuhVS6SeQSrZAKtkMqeRjSMWbIBVvhFT8EWODQtH6yGD7SfE6NOfOlbQRuvkciPcW4LoMuC6FIQ1wUi4CzguA8zxgPwdYT4BUfaWIm0pz2XWMDxUKUwTW6mDPi1K0/fRnC9dCDRCo3AtSfxyk9nuQ6kMg1d+CVH0tC5HKL0Es+0Ese0EqdoNU7AIp/xxS+WeQyj6FVLYdUuk2Xdtm0lyWy62BVLha4SHlAxPYHnn/GjWYGoDUHQOpMZPfB2LZA1LxhSCfCqlsB5Ono2IgbijNhGWpVQjIrGSsQKDABPpO3bdKDaYFqI1Avnyn0PoOoXU+KkbiwdKqsCy2HIGCZYylCvmcJQz2XIbvXc5YIQTokLxR63xUdOJm0qrkYsaiCOH7l8ihhADfdUxennV960biemlReCECf1PeF3jPBHHPQuVn8xcJAaq+Aak6aCKfGmJkWOvyjFPx1TpxselFOmEq9i5jAQIPwqDu1UIJAaj8gQjlN4VofaWBuIG0KjYfgQfzdLyjQ3w3n0EDLRACUPnK/QZjE4k8a12e8WUG4qI0FxBE789lvB0Gtk8IJgQQ73lh5kX5Yr28UeviqOjFmXSQ7FuMOTLSX5TZAsoz/l7brwTSAtDRYR+p9gdW33xKe3n1gAqtm4orwprkLMbMEMwSUILR3yEE2KN9pMpSdbdNqOb5yOhbNxbXGubCMyDlUd7UkWzwbIayXwilBWh3aMWrMhJ5fet6cTPpZEh50wXegHRPII/D3ycL4WaIAXYZzD27Kos2aAc2rDxvXWxcFBeluejrjGlh4Pu0QFqAdqPDDy2/56n8ahN5flDnIXCfy4ujohNXpanUVIW7UxiTDeDvprD9WiA1gHZl6ueef6T4Vbk8hPxcnfxMNiom4qrwJMZrYZgUHOreVCGAPDrbdaMjzj2/55cGH1hDeTYyauuiuCjNxHInQsp9VWCCDv6c7psYFEYIsCPE6NC55x+pxRHI85HhrYuNT9JJT2CMh/QnZZwJ45U9ukBagKCDy24ddXRWmowOv23M5Fnr6qjoxbnwWMYYxmiBMQJjtUAsjBBA375wZQaNTkfk9a0biY+BlDMaUs4rjFEmsPdqKCWMECBU+6FGh9/xM83l1db14qLwy5BykkDucEYK/06S3yl7eBgliBZAvXkM2s83aD+k/DQTebFxRZqospQRIHdeMmAEQwklBhECbNZunrDtG41OsnZgg+QnsMNJ5fmo0P88KVj69ouM4Saw92qgkXIQIQAfH+HmMZz9SEZnMqRcPvN6ed66KD4c5PYwkNtDQbIpQ4Khz2WGaWHkICP1AbTxCf5ohWhf/lDp5O+Gkmeti+LZXHYwSPYLJgwWwrAgd0YIfxeiZ8B0fELNPv9QGY3OOOGwcnneOm98MBMcBPLHQMbzAvzZoHZBHmWP0gI0ZAzxBOQzkGJwePU3TwTth5NXGx9kIB2KgfLPPcpOon/kdasBrBfihteei7ZX/dINj0PlmW6w/NwdltPdUfFTNMpPRaPsZA+UnohByfEYFB+LRdHRWBQe6YmHP/ZEweG4f0XhkUR70ck+Q9UAXatrda2u1bWiHnP9Aw5IwHNzYU21AAAAAElFTkSuQmCC;" vertex="1" parent="1">
          <mxGeometry x="270" y="895" width="20" height="20" as="geometry" />
        </mxCell>
        <mxCell id="63GN2_WQ_E0DW2pDX5st-42" value="" style="shape=image;verticalLabelPosition=bottom;labelBackgroundColor=default;verticalAlign=top;aspect=fixed;imageAspect=0;image=data:image/png,iVBORw0KGgoAAAANSUhEUgAAADAAAAAwCAYAAABXAvmHAAAACXBIWXMAAAsTAAALEwEAmpwYAAAGwElEQVR4nO2Y6XMURRyG418BISEHlwrqB0EuhYicIpcSuRQBlfsQiIAgyGEU5BLxwLKQW0RQIAgEQvIFvhiIgQgm5M7m3uy9yW4Odvq1eqZ7pncys7vBKlNWpaueKmqmE573rV/3VCUqqmt1ra71/1/+rO7xvszoTF9WdKs/MwY+yo1YNMn0RGOGgjcjDt7rcfBcj4fnWjzc1+J97mvxt9zp8bM7N0BmdKY/qwdU+UwuH4tGNYAiHxwgAe70BLjSE+BMTzgMRD3RKQF8tPmsGHSwfTkAlXelJ8J1NRHOqwlbOyWA36z9jMjapwGcVxPhuNKL2K8kTu+EADGh278eSfuUXnBcSfQ60nsP+G8DZJq3742wfUWe0ht2yuXesF3uA9vvlL5ooFzqC+ulfrCm9UN92pMydRcpT6GWcuFp1FDO95eppvw2AFWUX59BpUKr5eyzN0rP9o9TA1D55ntz0OYvQZvkRWvAi5ZHHrS0edDc5oa/1Q1fiwu+Zheaml1o9DvR6HPC2+SAp8kBd6Mdbq8dLq8NTe58EMd5wHYGsJ0GGk4BDScA63HAehSoPwzU/QDUHQJqvwWpOQhSfQCkah9I5W4Qy06QilSQ8m0gZVtASjeClKwHKVoLUrgKUsFS+HPmoDZtyM2gAG0tFkW8zaMKU1GvzwFPI5Wzw+m2weFqgM1pRYO9HvW2OtRZa2C1lsNpzUOLLQOwnQKx7IZUuhVS6SeQSrZAKtkMqeRjSMWbIBVvhFT8EWODQtH6yGD7SfE6NOfOlbQRuvkciPcW4LoMuC6FIQ1wUi4CzguA8zxgPwdYT4BUfaWIm0pz2XWMDxUKUwTW6mDPi1K0/fRnC9dCDRCo3AtSfxyk9nuQ6kMg1d+CVH0tC5HKL0Es+0Ese0EqdoNU7AIp/xxS+WeQyj6FVLYdUuk2Xdtm0lyWy62BVLha4SHlAxPYHnn/GjWYGoDUHQOpMZPfB2LZA1LxhSCfCqlsB5Ono2IgbijNhGWpVQjIrGSsQKDABPpO3bdKDaYFqI1Avnyn0PoOoXU+KkbiwdKqsCy2HIGCZYylCvmcJQz2XIbvXc5YIQTokLxR63xUdOJm0qrkYsaiCOH7l8ihhADfdUxennV960biemlReCECf1PeF3jPBHHPQuVn8xcJAaq+Aak6aCKfGmJkWOvyjFPx1TpxselFOmEq9i5jAQIPwqDu1UIJAaj8gQjlN4VofaWBuIG0KjYfgQfzdLyjQ3w3n0EDLRACUPnK/QZjE4k8a12e8WUG4qI0FxBE789lvB0Gtk8IJgQQ73lh5kX5Yr28UeviqOjFmXSQ7FuMOTLSX5TZAsoz/l7brwTSAtDRYR+p9gdW33xKe3n1gAqtm4orwprkLMbMEMwSUILR3yEE2KN9pMpSdbdNqOb5yOhbNxbXGubCMyDlUd7UkWzwbIayXwilBWh3aMWrMhJ5fet6cTPpZEh50wXegHRPII/D3ycL4WaIAXYZzD27Kos2aAc2rDxvXWxcFBeluejrjGlh4Pu0QFqAdqPDDy2/56n8ahN5flDnIXCfy4ujohNXpanUVIW7UxiTDeDvprD9WiA1gHZl6ueef6T4Vbk8hPxcnfxMNiom4qrwJMZrYZgUHOreVCGAPDrbdaMjzj2/55cGH1hDeTYyauuiuCjNxHInQsp9VWCCDv6c7psYFEYIsCPE6NC55x+pxRHI85HhrYuNT9JJT2CMh/QnZZwJ45U9ukBagKCDy24ddXRWmowOv23M5Fnr6qjoxbnwWMYYxmiBMQJjtUAsjBBA375wZQaNTkfk9a0biY+BlDMaUs4rjFEmsPdqKCWMECBU+6FGh9/xM83l1db14qLwy5BykkDucEYK/06S3yl7eBgliBZAvXkM2s83aD+k/DQTebFxRZqospQRIHdeMmAEQwklBhECbNZunrDtG41OsnZgg+QnsMNJ5fmo0P88KVj69ouM4Saw92qgkXIQIQAfH+HmMZz9SEZnMqRcPvN6ed66KD4c5PYwkNtDQbIpQ4Khz2WGaWHkICP1AbTxCf5ohWhf/lDp5O+Gkmeti+LZXHYwSPYLJgwWwrAgd0YIfxeiZ8B0fELNPv9QGY3OOOGwcnneOm98MBMcBPLHQMbzAvzZoHZBHmWP0gI0ZAzxBOQzkGJwePU3TwTth5NXGx9kIB2KgfLPPcpOon/kdasBrBfihteei7ZX/dINj0PlmW6w/NwdltPdUfFTNMpPRaPsZA+UnohByfEYFB+LRdHRWBQe6YmHP/ZEweG4f0XhkUR70ck+Q9UAXatrda2u1bWiHnP9Aw5IwHNzYU21AAAAAElFTkSuQmCC;" vertex="1" parent="1">
          <mxGeometry x="270" y="928" width="20" height="20" as="geometry" />
        </mxCell>
        <mxCell id="63GN2_WQ_E0DW2pDX5st-5" value="&lt;div style=&quot;text-align: justify;&quot;&gt;&lt;span style=&quot;background-color: initial;&quot;&gt;+ Руководитель АХО&lt;/span&gt;&lt;/div&gt;&lt;div style=&quot;text-align: justify;&quot;&gt;&lt;span style=&quot;background-color: initial;&quot;&gt;&lt;br&gt;&lt;/span&gt;&lt;/div&gt;&lt;div style=&quot;text-align: justify;&quot;&gt;&lt;span style=&quot;background-color: initial;&quot;&gt;+ Бухгалтерия&lt;/span&gt;&lt;/div&gt;&lt;div style=&quot;text-align: justify;&quot;&gt;&lt;span style=&quot;background-color: initial;&quot;&gt;&lt;br&gt;&lt;/span&gt;&lt;/div&gt;&lt;div style=&quot;text-align: left;&quot;&gt;+Отдел кадров&lt;/div&gt;" style="shape=folder;fontStyle=1;spacingTop=10;tabWidth=100;tabHeight=30;tabPosition=left;html=1;whiteSpace=wrap;align=right;" vertex="1" parent="1">
          <mxGeometry x="-30" y="880" width="170" height="140" as="geometry" />
        </mxCell>
        <mxCell id="63GN2_WQ_E0DW2pDX5st-6" value="АХО" style="text;html=1;align=center;verticalAlign=middle;whiteSpace=wrap;rounded=0;" vertex="1" parent="1">
          <mxGeometry x="-30" y="883" width="100" height="22.5" as="geometry" />
        </mxCell>
        <mxCell id="63GN2_WQ_E0DW2pDX5st-8" value="" style="shape=image;verticalLabelPosition=bottom;labelBackgroundColor=default;verticalAlign=top;aspect=fixed;imageAspect=0;image=data:image/png,iVBORw0KGgoAAAANSUhEUgAAADAAAAAwCAYAAABXAvmHAAAACXBIWXMAAAsTAAALEwEAmpwYAAAGwElEQVR4nO2Y6XMURRyG418BISEHlwrqB0EuhYicIpcSuRQBlfsQiIAgyGEU5BLxwLKQW0RQIAgEQvIFvhiIgQgm5M7m3uy9yW4Odvq1eqZ7pncys7vBKlNWpaueKmqmE573rV/3VCUqqmt1ra71/1/+rO7xvszoTF9WdKs/MwY+yo1YNMn0RGOGgjcjDt7rcfBcj4fnWjzc1+J97mvxt9zp8bM7N0BmdKY/qwdU+UwuH4tGNYAiHxwgAe70BLjSE+BMTzgMRD3RKQF8tPmsGHSwfTkAlXelJ8J1NRHOqwlbOyWA36z9jMjapwGcVxPhuNKL2K8kTu+EADGh278eSfuUXnBcSfQ60nsP+G8DZJq3742wfUWe0ht2yuXesF3uA9vvlL5ooFzqC+ulfrCm9UN92pMydRcpT6GWcuFp1FDO95eppvw2AFWUX59BpUKr5eyzN0rP9o9TA1D55ntz0OYvQZvkRWvAi5ZHHrS0edDc5oa/1Q1fiwu+Zheaml1o9DvR6HPC2+SAp8kBd6Mdbq8dLq8NTe58EMd5wHYGsJ0GGk4BDScA63HAehSoPwzU/QDUHQJqvwWpOQhSfQCkah9I5W4Qy06QilSQ8m0gZVtASjeClKwHKVoLUrgKUsFS+HPmoDZtyM2gAG0tFkW8zaMKU1GvzwFPI5Wzw+m2weFqgM1pRYO9HvW2OtRZa2C1lsNpzUOLLQOwnQKx7IZUuhVS6SeQSrZAKtkMqeRjSMWbIBVvhFT8EWODQtH6yGD7SfE6NOfOlbQRuvkciPcW4LoMuC6FIQ1wUi4CzguA8zxgPwdYT4BUfaWIm0pz2XWMDxUKUwTW6mDPi1K0/fRnC9dCDRCo3AtSfxyk9nuQ6kMg1d+CVH0tC5HKL0Es+0Ese0EqdoNU7AIp/xxS+WeQyj6FVLYdUuk2Xdtm0lyWy62BVLha4SHlAxPYHnn/GjWYGoDUHQOpMZPfB2LZA1LxhSCfCqlsB5Ono2IgbijNhGWpVQjIrGSsQKDABPpO3bdKDaYFqI1Avnyn0PoOoXU+KkbiwdKqsCy2HIGCZYylCvmcJQz2XIbvXc5YIQTokLxR63xUdOJm0qrkYsaiCOH7l8ihhADfdUxennV960biemlReCECf1PeF3jPBHHPQuVn8xcJAaq+Aak6aCKfGmJkWOvyjFPx1TpxselFOmEq9i5jAQIPwqDu1UIJAaj8gQjlN4VofaWBuIG0KjYfgQfzdLyjQ3w3n0EDLRACUPnK/QZjE4k8a12e8WUG4qI0FxBE789lvB0Gtk8IJgQQ73lh5kX5Yr28UeviqOjFmXSQ7FuMOTLSX5TZAsoz/l7brwTSAtDRYR+p9gdW33xKe3n1gAqtm4orwprkLMbMEMwSUILR3yEE2KN9pMpSdbdNqOb5yOhbNxbXGubCMyDlUd7UkWzwbIayXwilBWh3aMWrMhJ5fet6cTPpZEh50wXegHRPII/D3ycL4WaIAXYZzD27Kos2aAc2rDxvXWxcFBeluejrjGlh4Pu0QFqAdqPDDy2/56n8ahN5flDnIXCfy4ujohNXpanUVIW7UxiTDeDvprD9WiA1gHZl6ueef6T4Vbk8hPxcnfxMNiom4qrwJMZrYZgUHOreVCGAPDrbdaMjzj2/55cGH1hDeTYyauuiuCjNxHInQsp9VWCCDv6c7psYFEYIsCPE6NC55x+pxRHI85HhrYuNT9JJT2CMh/QnZZwJ45U9ukBagKCDy24ddXRWmowOv23M5Fnr6qjoxbnwWMYYxmiBMQJjtUAsjBBA375wZQaNTkfk9a0biY+BlDMaUs4rjFEmsPdqKCWMECBU+6FGh9/xM83l1db14qLwy5BykkDucEYK/06S3yl7eBgliBZAvXkM2s83aD+k/DQTebFxRZqospQRIHdeMmAEQwklBhECbNZunrDtG41OsnZgg+QnsMNJ5fmo0P88KVj69ouM4Saw92qgkXIQIQAfH+HmMZz9SEZnMqRcPvN6ed66KD4c5PYwkNtDQbIpQ4Khz2WGaWHkICP1AbTxCf5ohWhf/lDp5O+Gkmeti+LZXHYwSPYLJgwWwrAgd0YIfxeiZ8B0fELNPv9QGY3OOOGwcnneOm98MBMcBPLHQMbzAvzZoHZBHmWP0gI0ZAzxBOQzkGJwePU3TwTth5NXGx9kIB2KgfLPPcpOon/kdasBrBfihteei7ZX/dINj0PlmW6w/NwdltPdUfFTNMpPRaPsZA+UnohByfEYFB+LRdHRWBQe6YmHP/ZEweG4f0XhkUR70ck+Q9UAXatrda2u1bWiHnP9Aw5IwHNzYU21AAAAAElFTkSuQmCC;" vertex="1" parent="1">
          <mxGeometry x="-10" y="920" width="20" height="20" as="geometry" />
        </mxCell>
        <mxCell id="63GN2_WQ_E0DW2pDX5st-10" value="" style="shape=image;verticalLabelPosition=bottom;labelBackgroundColor=default;verticalAlign=top;aspect=fixed;imageAspect=0;image=data:image/png,iVBORw0KGgoAAAANSUhEUgAAADAAAAAwCAYAAABXAvmHAAAACXBIWXMAAAsTAAALEwEAmpwYAAAGwElEQVR4nO2Y6XMURRyG418BISEHlwrqB0EuhYicIpcSuRQBlfsQiIAgyGEU5BLxwLKQW0RQIAgEQvIFvhiIgQgm5M7m3uy9yW4Odvq1eqZ7pncys7vBKlNWpaueKmqmE573rV/3VCUqqmt1ra71/1/+rO7xvszoTF9WdKs/MwY+yo1YNMn0RGOGgjcjDt7rcfBcj4fnWjzc1+J97mvxt9zp8bM7N0BmdKY/qwdU+UwuH4tGNYAiHxwgAe70BLjSE+BMTzgMRD3RKQF8tPmsGHSwfTkAlXelJ8J1NRHOqwlbOyWA36z9jMjapwGcVxPhuNKL2K8kTu+EADGh278eSfuUXnBcSfQ60nsP+G8DZJq3742wfUWe0ht2yuXesF3uA9vvlL5ooFzqC+ulfrCm9UN92pMydRcpT6GWcuFp1FDO95eppvw2AFWUX59BpUKr5eyzN0rP9o9TA1D55ntz0OYvQZvkRWvAi5ZHHrS0edDc5oa/1Q1fiwu+Zheaml1o9DvR6HPC2+SAp8kBd6Mdbq8dLq8NTe58EMd5wHYGsJ0GGk4BDScA63HAehSoPwzU/QDUHQJqvwWpOQhSfQCkah9I5W4Qy06QilSQ8m0gZVtASjeClKwHKVoLUrgKUsFS+HPmoDZtyM2gAG0tFkW8zaMKU1GvzwFPI5Wzw+m2weFqgM1pRYO9HvW2OtRZa2C1lsNpzUOLLQOwnQKx7IZUuhVS6SeQSrZAKtkMqeRjSMWbIBVvhFT8EWODQtH6yGD7SfE6NOfOlbQRuvkciPcW4LoMuC6FIQ1wUi4CzguA8zxgPwdYT4BUfaWIm0pz2XWMDxUKUwTW6mDPi1K0/fRnC9dCDRCo3AtSfxyk9nuQ6kMg1d+CVH0tC5HKL0Es+0Ese0EqdoNU7AIp/xxS+WeQyj6FVLYdUuk2Xdtm0lyWy62BVLha4SHlAxPYHnn/GjWYGoDUHQOpMZPfB2LZA1LxhSCfCqlsB5Ono2IgbijNhGWpVQjIrGSsQKDABPpO3bdKDaYFqI1Avnyn0PoOoXU+KkbiwdKqsCy2HIGCZYylCvmcJQz2XIbvXc5YIQTokLxR63xUdOJm0qrkYsaiCOH7l8ihhADfdUxennV960biemlReCECf1PeF3jPBHHPQuVn8xcJAaq+Aak6aCKfGmJkWOvyjFPx1TpxselFOmEq9i5jAQIPwqDu1UIJAaj8gQjlN4VofaWBuIG0KjYfgQfzdLyjQ3w3n0EDLRACUPnK/QZjE4k8a12e8WUG4qI0FxBE789lvB0Gtk8IJgQQ73lh5kX5Yr28UeviqOjFmXSQ7FuMOTLSX5TZAsoz/l7brwTSAtDRYR+p9gdW33xKe3n1gAqtm4orwprkLMbMEMwSUILR3yEE2KN9pMpSdbdNqOb5yOhbNxbXGubCMyDlUd7UkWzwbIayXwilBWh3aMWrMhJ5fet6cTPpZEh50wXegHRPII/D3ycL4WaIAXYZzD27Kos2aAc2rDxvXWxcFBeluejrjGlh4Pu0QFqAdqPDDy2/56n8ahN5flDnIXCfy4ujohNXpanUVIW7UxiTDeDvprD9WiA1gHZl6ueef6T4Vbk8hPxcnfxMNiom4qrwJMZrYZgUHOreVCGAPDrbdaMjzj2/55cGH1hDeTYyauuiuCjNxHInQsp9VWCCDv6c7psYFEYIsCPE6NC55x+pxRHI85HhrYuNT9JJT2CMh/QnZZwJ45U9ukBagKCDy24ddXRWmowOv23M5Fnr6qjoxbnwWMYYxmiBMQJjtUAsjBBA375wZQaNTkfk9a0biY+BlDMaUs4rjFEmsPdqKCWMECBU+6FGh9/xM83l1db14qLwy5BykkDucEYK/06S3yl7eBgliBZAvXkM2s83aD+k/DQTebFxRZqospQRIHdeMmAEQwklBhECbNZunrDtG41OsnZgg+QnsMNJ5fmo0P88KVj69ouM4Saw92qgkXIQIQAfH+HmMZz9SEZnMqRcPvN6ed66KD4c5PYwkNtDQbIpQ4Khz2WGaWHkICP1AbTxCf5ohWhf/lDp5O+Gkmeti+LZXHYwSPYLJgwWwrAgd0YIfxeiZ8B0fELNPv9QGY3OOOGwcnneOm98MBMcBPLHQMbzAvzZoHZBHmWP0gI0ZAzxBOQzkGJwePU3TwTth5NXGx9kIB2KgfLPPcpOon/kdasBrBfihteei7ZX/dINj0PlmW6w/NwdltPdUfFTNMpPRaPsZA+UnohByfEYFB+LRdHRWBQe6YmHP/ZEweG4f0XhkUR70ck+Q9UAXatrda2u1bWiHnP9Aw5IwHNzYU21AAAAAElFTkSuQmCC;" vertex="1" parent="1">
          <mxGeometry x="-10" y="948" width="20" height="20" as="geometry" />
        </mxCell>
        <mxCell id="63GN2_WQ_E0DW2pDX5st-11" value="" style="shape=image;verticalLabelPosition=bottom;labelBackgroundColor=default;verticalAlign=top;aspect=fixed;imageAspect=0;image=data:image/png,iVBORw0KGgoAAAANSUhEUgAAADAAAAAwCAYAAABXAvmHAAAACXBIWXMAAAsTAAALEwEAmpwYAAAGwElEQVR4nO2Y6XMURRyG418BISEHlwrqB0EuhYicIpcSuRQBlfsQiIAgyGEU5BLxwLKQW0RQIAgEQvIFvhiIgQgm5M7m3uy9yW4Odvq1eqZ7pncys7vBKlNWpaueKmqmE573rV/3VCUqqmt1ra71/1/+rO7xvszoTF9WdKs/MwY+yo1YNMn0RGOGgjcjDt7rcfBcj4fnWjzc1+J97mvxt9zp8bM7N0BmdKY/qwdU+UwuH4tGNYAiHxwgAe70BLjSE+BMTzgMRD3RKQF8tPmsGHSwfTkAlXelJ8J1NRHOqwlbOyWA36z9jMjapwGcVxPhuNKL2K8kTu+EADGh278eSfuUXnBcSfQ60nsP+G8DZJq3742wfUWe0ht2yuXesF3uA9vvlL5ooFzqC+ulfrCm9UN92pMydRcpT6GWcuFp1FDO95eppvw2AFWUX59BpUKr5eyzN0rP9o9TA1D55ntz0OYvQZvkRWvAi5ZHHrS0edDc5oa/1Q1fiwu+Zheaml1o9DvR6HPC2+SAp8kBd6Mdbq8dLq8NTe58EMd5wHYGsJ0GGk4BDScA63HAehSoPwzU/QDUHQJqvwWpOQhSfQCkah9I5W4Qy06QilSQ8m0gZVtASjeClKwHKVoLUrgKUsFS+HPmoDZtyM2gAG0tFkW8zaMKU1GvzwFPI5Wzw+m2weFqgM1pRYO9HvW2OtRZa2C1lsNpzUOLLQOwnQKx7IZUuhVS6SeQSrZAKtkMqeRjSMWbIBVvhFT8EWODQtH6yGD7SfE6NOfOlbQRuvkciPcW4LoMuC6FIQ1wUi4CzguA8zxgPwdYT4BUfaWIm0pz2XWMDxUKUwTW6mDPi1K0/fRnC9dCDRCo3AtSfxyk9nuQ6kMg1d+CVH0tC5HKL0Es+0Ese0EqdoNU7AIp/xxS+WeQyj6FVLYdUuk2Xdtm0lyWy62BVLha4SHlAxPYHnn/GjWYGoDUHQOpMZPfB2LZA1LxhSCfCqlsB5Ono2IgbijNhGWpVQjIrGSsQKDABPpO3bdKDaYFqI1Avnyn0PoOoXU+KkbiwdKqsCy2HIGCZYylCvmcJQz2XIbvXc5YIQTokLxR63xUdOJm0qrkYsaiCOH7l8ihhADfdUxennV960biemlReCECf1PeF3jPBHHPQuVn8xcJAaq+Aak6aCKfGmJkWOvyjFPx1TpxselFOmEq9i5jAQIPwqDu1UIJAaj8gQjlN4VofaWBuIG0KjYfgQfzdLyjQ3w3n0EDLRACUPnK/QZjE4k8a12e8WUG4qI0FxBE789lvB0Gtk8IJgQQ73lh5kX5Yr28UeviqOjFmXSQ7FuMOTLSX5TZAsoz/l7brwTSAtDRYR+p9gdW33xKe3n1gAqtm4orwprkLMbMEMwSUILR3yEE2KN9pMpSdbdNqOb5yOhbNxbXGubCMyDlUd7UkWzwbIayXwilBWh3aMWrMhJ5fet6cTPpZEh50wXegHRPII/D3ycL4WaIAXYZzD27Kos2aAc2rDxvXWxcFBeluejrjGlh4Pu0QFqAdqPDDy2/56n8ahN5flDnIXCfy4ujohNXpanUVIW7UxiTDeDvprD9WiA1gHZl6ueef6T4Vbk8hPxcnfxMNiom4qrwJMZrYZgUHOreVCGAPDrbdaMjzj2/55cGH1hDeTYyauuiuCjNxHInQsp9VWCCDv6c7psYFEYIsCPE6NC55x+pxRHI85HhrYuNT9JJT2CMh/QnZZwJ45U9ukBagKCDy24ddXRWmowOv23M5Fnr6qjoxbnwWMYYxmiBMQJjtUAsjBBA375wZQaNTkfk9a0biY+BlDMaUs4rjFEmsPdqKCWMECBU+6FGh9/xM83l1db14qLwy5BykkDucEYK/06S3yl7eBgliBZAvXkM2s83aD+k/DQTebFxRZqospQRIHdeMmAEQwklBhECbNZunrDtG41OsnZgg+QnsMNJ5fmo0P88KVj69ouM4Saw92qgkXIQIQAfH+HmMZz9SEZnMqRcPvN6ed66KD4c5PYwkNtDQbIpQ4Khz2WGaWHkICP1AbTxCf5ohWhf/lDp5O+Gkmeti+LZXHYwSPYLJgwWwrAgd0YIfxeiZ8B0fELNPv9QGY3OOOGwcnneOm98MBMcBPLHQMbzAvzZoHZBHmWP0gI0ZAzxBOQzkGJwePU3TwTth5NXGx9kIB2KgfLPPcpOon/kdasBrBfihteei7ZX/dINj0PlmW6w/NwdltPdUfFTNMpPRaPsZA+UnohByfEYFB+LRdHRWBQe6YmHP/ZEweG4f0XhkUR70ck+Q9UAXatrda2u1bWiHnP9Aw5IwHNzYU21AAAAAElFTkSuQmCC;" vertex="1" parent="1">
          <mxGeometry x="-10" y="973" width="20" height="20" as="geometry" />
        </mxCell>
        <mxCell id="63GN2_WQ_E0DW2pDX5st-43" style="rounded=0;orthogonalLoop=1;jettySize=auto;html=1;exitX=0;exitY=0;exitDx=190;exitDy=85;exitPerimeter=0;entryX=0;entryY=0;entryDx=0;entryDy=60;entryPerimeter=0;dashed=1;endArrow=open;endFill=0;" edge="1" parent="1" source="63GN2_WQ_E0DW2pDX5st-14" target="63GN2_WQ_E0DW2pDX5st-1">
          <mxGeometry relative="1" as="geometry" />
        </mxCell>
        <mxCell id="63GN2_WQ_E0DW2pDX5st-44" style="rounded=0;orthogonalLoop=1;jettySize=auto;html=1;exitX=0.75;exitY=1;exitDx=0;exitDy=0;exitPerimeter=0;entryX=0;entryY=0;entryDx=0;entryDy=0;entryPerimeter=0;dashed=1;endArrow=open;endFill=0;" edge="1" parent="1" source="63GN2_WQ_E0DW2pDX5st-20" target="63GN2_WQ_E0DW2pDX5st-1">
          <mxGeometry relative="1" as="geometry">
            <mxPoint x="-90" y="649" as="sourcePoint" />
            <mxPoint x="10" y="614" as="targetPoint" />
          </mxGeometry>
        </mxCell>
        <mxCell id="63GN2_WQ_E0DW2pDX5st-45" style="rounded=0;orthogonalLoop=1;jettySize=auto;html=1;exitX=0;exitY=0;exitDx=0;exitDy=90;exitPerimeter=0;entryX=0;entryY=0;entryDx=210;entryDy=30;entryPerimeter=0;dashed=1;endArrow=open;endFill=0;" edge="1" parent="1" source="63GN2_WQ_E0DW2pDX5st-34" target="63GN2_WQ_E0DW2pDX5st-1">
          <mxGeometry relative="1" as="geometry">
            <mxPoint x="150" y="697.5" as="sourcePoint" />
            <mxPoint x="220" y="752.5" as="targetPoint" />
          </mxGeometry>
        </mxCell>
        <mxCell id="63GN2_WQ_E0DW2pDX5st-46" style="rounded=0;orthogonalLoop=1;jettySize=auto;html=1;exitX=0;exitY=0;exitDx=0;exitDy=0;entryX=0;entryY=0;entryDx=210;entryDy=90;entryPerimeter=0;dashed=1;endArrow=open;endFill=0;" edge="1" parent="1" source="63GN2_WQ_E0DW2pDX5st-40" target="63GN2_WQ_E0DW2pDX5st-1">
          <mxGeometry relative="1" as="geometry">
            <mxPoint x="-100" y="645" as="sourcePoint" />
            <mxPoint x="-30" y="700" as="targetPoint" />
          </mxGeometry>
        </mxCell>
        <mxCell id="63GN2_WQ_E0DW2pDX5st-47" style="rounded=0;orthogonalLoop=1;jettySize=auto;html=1;exitX=0.25;exitY=0;exitDx=0;exitDy=0;entryX=0.463;entryY=0.996;entryDx=0;entryDy=0;entryPerimeter=0;dashed=1;endArrow=open;endFill=0;" edge="1" parent="1" source="63GN2_WQ_E0DW2pDX5st-6" target="63GN2_WQ_E0DW2pDX5st-1">
          <mxGeometry relative="1" as="geometry">
            <mxPoint x="260" y="853" as="sourcePoint" />
            <mxPoint x="170" y="780" as="targetPoint" />
          </mxGeometry>
        </mxCell>
        <mxCell id="63GN2_WQ_E0DW2pDX5st-48" style="rounded=0;orthogonalLoop=1;jettySize=auto;html=1;exitX=1;exitY=0;exitDx=0;exitDy=0;entryX=0.25;entryY=1;entryDx=0;entryDy=0;entryPerimeter=0;dashed=1;endArrow=open;endFill=0;" edge="1" parent="1" source="63GN2_WQ_E0DW2pDX5st-26" target="63GN2_WQ_E0DW2pDX5st-1">
          <mxGeometry relative="1" as="geometry" />
        </mxCell>
        <mxCell id="63GN2_WQ_E0DW2pDX5st-49" value="" style="shape=image;verticalLabelPosition=bottom;labelBackgroundColor=default;verticalAlign=top;aspect=fixed;imageAspect=0;image=data:image/png,iVBORw0KGgoAAAANSUhEUgAAADAAAAAwCAYAAABXAvmHAAAACXBIWXMAAAsTAAALEwEAmpwYAAAGwElEQVR4nO2Y6XMURRyG418BISEHlwrqB0EuhYicIpcSuRQBlfsQiIAgyGEU5BLxwLKQW0RQIAgEQvIFvhiIgQgm5M7m3uy9yW4Odvq1eqZ7pncys7vBKlNWpaueKmqmE573rV/3VCUqqmt1ra71/1/+rO7xvszoTF9WdKs/MwY+yo1YNMn0RGOGgjcjDt7rcfBcj4fnWjzc1+J97mvxt9zp8bM7N0BmdKY/qwdU+UwuH4tGNYAiHxwgAe70BLjSE+BMTzgMRD3RKQF8tPmsGHSwfTkAlXelJ8J1NRHOqwlbOyWA36z9jMjapwGcVxPhuNKL2K8kTu+EADGh278eSfuUXnBcSfQ60nsP+G8DZJq3742wfUWe0ht2yuXesF3uA9vvlL5ooFzqC+ulfrCm9UN92pMydRcpT6GWcuFp1FDO95eppvw2AFWUX59BpUKr5eyzN0rP9o9TA1D55ntz0OYvQZvkRWvAi5ZHHrS0edDc5oa/1Q1fiwu+Zheaml1o9DvR6HPC2+SAp8kBd6Mdbq8dLq8NTe58EMd5wHYGsJ0GGk4BDScA63HAehSoPwzU/QDUHQJqvwWpOQhSfQCkah9I5W4Qy06QilSQ8m0gZVtASjeClKwHKVoLUrgKUsFS+HPmoDZtyM2gAG0tFkW8zaMKU1GvzwFPI5Wzw+m2weFqgM1pRYO9HvW2OtRZa2C1lsNpzUOLLQOwnQKx7IZUuhVS6SeQSrZAKtkMqeRjSMWbIBVvhFT8EWODQtH6yGD7SfE6NOfOlbQRuvkciPcW4LoMuC6FIQ1wUi4CzguA8zxgPwdYT4BUfaWIm0pz2XWMDxUKUwTW6mDPi1K0/fRnC9dCDRCo3AtSfxyk9nuQ6kMg1d+CVH0tC5HKL0Es+0Ese0EqdoNU7AIp/xxS+WeQyj6FVLYdUuk2Xdtm0lyWy62BVLha4SHlAxPYHnn/GjWYGoDUHQOpMZPfB2LZA1LxhSCfCqlsB5Ono2IgbijNhGWpVQjIrGSsQKDABPpO3bdKDaYFqI1Avnyn0PoOoXU+KkbiwdKqsCy2HIGCZYylCvmcJQz2XIbvXc5YIQTokLxR63xUdOJm0qrkYsaiCOH7l8ihhADfdUxennV960biemlReCECf1PeF3jPBHHPQuVn8xcJAaq+Aak6aCKfGmJkWOvyjFPx1TpxselFOmEq9i5jAQIPwqDu1UIJAaj8gQjlN4VofaWBuIG0KjYfgQfzdLyjQ3w3n0EDLRACUPnK/QZjE4k8a12e8WUG4qI0FxBE789lvB0Gtk8IJgQQ73lh5kX5Yr28UeviqOjFmXSQ7FuMOTLSX5TZAsoz/l7brwTSAtDRYR+p9gdW33xKe3n1gAqtm4orwprkLMbMEMwSUILR3yEE2KN9pMpSdbdNqOb5yOhbNxbXGubCMyDlUd7UkWzwbIayXwilBWh3aMWrMhJ5fet6cTPpZEh50wXegHRPII/D3ycL4WaIAXYZzD27Kos2aAc2rDxvXWxcFBeluejrjGlh4Pu0QFqAdqPDDy2/56n8ahN5flDnIXCfy4ujohNXpanUVIW7UxiTDeDvprD9WiA1gHZl6ueef6T4Vbk8hPxcnfxMNiom4qrwJMZrYZgUHOreVCGAPDrbdaMjzj2/55cGH1hDeTYyauuiuCjNxHInQsp9VWCCDv6c7psYFEYIsCPE6NC55x+pxRHI85HhrYuNT9JJT2CMh/QnZZwJ45U9ukBagKCDy24ddXRWmowOv23M5Fnr6qjoxbnwWMYYxmiBMQJjtUAsjBBA375wZQaNTkfk9a0biY+BlDMaUs4rjFEmsPdqKCWMECBU+6FGh9/xM83l1db14qLwy5BykkDucEYK/06S3yl7eBgliBZAvXkM2s83aD+k/DQTebFxRZqospQRIHdeMmAEQwklBhECbNZunrDtG41OsnZgg+QnsMNJ5fmo0P88KVj69ouM4Saw92qgkXIQIQAfH+HmMZz9SEZnMqRcPvN6ed66KD4c5PYwkNtDQbIpQ4Khz2WGaWHkICP1AbTxCf5ohWhf/lDp5O+Gkmeti+LZXHYwSPYLJgwWwrAgd0YIfxeiZ8B0fELNPv9QGY3OOOGwcnneOm98MBMcBPLHQMbzAvzZoHZBHmWP0gI0ZAzxBOQzkGJwePU3TwTth5NXGx9kIB2KgfLPPcpOon/kdasBrBfihteei7ZX/dINj0PlmW6w/NwdltPdUfFTNMpPRaPsZA+UnohByfEYFB+LRdHRWBQe6YmHP/ZEweG4f0XhkUR70ck+Q9UAXatrda2u1bWiHnP9Aw5IwHNzYU21AAAAAElFTkSuQmCC;" vertex="1" parent="1">
          <mxGeometry x="270" y="869.5" width="20" height="20" as="geometry" />
        </mxCell>
        <mxCell id="63GN2_WQ_E0DW2pDX5st-50" value="" style="shape=image;verticalLabelPosition=bottom;labelBackgroundColor=default;verticalAlign=top;aspect=fixed;imageAspect=0;image=data:image/png,iVBORw0KGgoAAAANSUhEUgAAADAAAAAwCAYAAABXAvmHAAAACXBIWXMAAAsTAAALEwEAmpwYAAAGwElEQVR4nO2Y6XMURRyG418BISEHlwrqB0EuhYicIpcSuRQBlfsQiIAgyGEU5BLxwLKQW0RQIAgEQvIFvhiIgQgm5M7m3uy9yW4Odvq1eqZ7pncys7vBKlNWpaueKmqmE573rV/3VCUqqmt1ra71/1/+rO7xvszoTF9WdKs/MwY+yo1YNMn0RGOGgjcjDt7rcfBcj4fnWjzc1+J97mvxt9zp8bM7N0BmdKY/qwdU+UwuH4tGNYAiHxwgAe70BLjSE+BMTzgMRD3RKQF8tPmsGHSwfTkAlXelJ8J1NRHOqwlbOyWA36z9jMjapwGcVxPhuNKL2K8kTu+EADGh278eSfuUXnBcSfQ60nsP+G8DZJq3742wfUWe0ht2yuXesF3uA9vvlL5ooFzqC+ulfrCm9UN92pMydRcpT6GWcuFp1FDO95eppvw2AFWUX59BpUKr5eyzN0rP9o9TA1D55ntz0OYvQZvkRWvAi5ZHHrS0edDc5oa/1Q1fiwu+Zheaml1o9DvR6HPC2+SAp8kBd6Mdbq8dLq8NTe58EMd5wHYGsJ0GGk4BDScA63HAehSoPwzU/QDUHQJqvwWpOQhSfQCkah9I5W4Qy06QilSQ8m0gZVtASjeClKwHKVoLUrgKUsFS+HPmoDZtyM2gAG0tFkW8zaMKU1GvzwFPI5Wzw+m2weFqgM1pRYO9HvW2OtRZa2C1lsNpzUOLLQOwnQKx7IZUuhVS6SeQSrZAKtkMqeRjSMWbIBVvhFT8EWODQtH6yGD7SfE6NOfOlbQRuvkciPcW4LoMuC6FIQ1wUi4CzguA8zxgPwdYT4BUfaWIm0pz2XWMDxUKUwTW6mDPi1K0/fRnC9dCDRCo3AtSfxyk9nuQ6kMg1d+CVH0tC5HKL0Es+0Ese0EqdoNU7AIp/xxS+WeQyj6FVLYdUuk2Xdtm0lyWy62BVLha4SHlAxPYHnn/GjWYGoDUHQOpMZPfB2LZA1LxhSCfCqlsB5Ono2IgbijNhGWpVQjIrGSsQKDABPpO3bdKDaYFqI1Avnyn0PoOoXU+KkbiwdKqsCy2HIGCZYylCvmcJQz2XIbvXc5YIQTokLxR63xUdOJm0qrkYsaiCOH7l8ihhADfdUxennV960biemlReCECf1PeF3jPBHHPQuVn8xcJAaq+Aak6aCKfGmJkWOvyjFPx1TpxselFOmEq9i5jAQIPwqDu1UIJAaj8gQjlN4VofaWBuIG0KjYfgQfzdLyjQ3w3n0EDLRACUPnK/QZjE4k8a12e8WUG4qI0FxBE789lvB0Gtk8IJgQQ73lh5kX5Yr28UeviqOjFmXSQ7FuMOTLSX5TZAsoz/l7brwTSAtDRYR+p9gdW33xKe3n1gAqtm4orwprkLMbMEMwSUILR3yEE2KN9pMpSdbdNqOb5yOhbNxbXGubCMyDlUd7UkWzwbIayXwilBWh3aMWrMhJ5fet6cTPpZEh50wXegHRPII/D3ycL4WaIAXYZzD27Kos2aAc2rDxvXWxcFBeluejrjGlh4Pu0QFqAdqPDDy2/56n8ahN5flDnIXCfy4ujohNXpanUVIW7UxiTDeDvprD9WiA1gHZl6ueef6T4Vbk8hPxcnfxMNiom4qrwJMZrYZgUHOreVCGAPDrbdaMjzj2/55cGH1hDeTYyauuiuCjNxHInQsp9VWCCDv6c7psYFEYIsCPE6NC55x+pxRHI85HhrYuNT9JJT2CMh/QnZZwJ45U9ukBagKCDy24ddXRWmowOv23M5Fnr6qjoxbnwWMYYxmiBMQJjtUAsjBBA375wZQaNTkfk9a0biY+BlDMaUs4rjFEmsPdqKCWMECBU+6FGh9/xM83l1db14qLwy5BykkDucEYK/06S3yl7eBgliBZAvXkM2s83aD+k/DQTebFxRZqospQRIHdeMmAEQwklBhECbNZunrDtG41OsnZgg+QnsMNJ5fmo0P88KVj69ouM4Saw92qgkXIQIQAfH+HmMZz9SEZnMqRcPvN6ed66KD4c5PYwkNtDQbIpQ4Khz2WGaWHkICP1AbTxCf5ohWhf/lDp5O+Gkmeti+LZXHYwSPYLJgwWwrAgd0YIfxeiZ8B0fELNPv9QGY3OOOGwcnneOm98MBMcBPLHQMbzAvzZoHZBHmWP0gI0ZAzxBOQzkGJwePU3TwTth5NXGx9kIB2KgfLPPcpOon/kdasBrBfihteei7ZX/dINj0PlmW6w/NwdltPdUfFTNMpPRaPsZA+UnohByfEYFB+LRdHRWBQe6YmHP/ZEweG4f0XhkUR70ck+Q9UAXatrda2u1bWiHnP9Aw5IwHNzYU21AAAAAElFTkSuQmCC;" vertex="1" parent="1">
          <mxGeometry x="271" y="694" width="20" height="20" as="geometry" />
        </mxCell>
        <mxCell id="63GN2_WQ_E0DW2pDX5st-51" value="" style="shape=image;verticalLabelPosition=bottom;labelBackgroundColor=default;verticalAlign=top;aspect=fixed;imageAspect=0;image=data:image/png,iVBORw0KGgoAAAANSUhEUgAAADAAAAAwCAYAAABXAvmHAAAACXBIWXMAAAsTAAALEwEAmpwYAAAGwElEQVR4nO2Y6XMURRyG418BISEHlwrqB0EuhYicIpcSuRQBlfsQiIAgyGEU5BLxwLKQW0RQIAgEQvIFvhiIgQgm5M7m3uy9yW4Odvq1eqZ7pncys7vBKlNWpaueKmqmE573rV/3VCUqqmt1ra71/1/+rO7xvszoTF9WdKs/MwY+yo1YNMn0RGOGgjcjDt7rcfBcj4fnWjzc1+J97mvxt9zp8bM7N0BmdKY/qwdU+UwuH4tGNYAiHxwgAe70BLjSE+BMTzgMRD3RKQF8tPmsGHSwfTkAlXelJ8J1NRHOqwlbOyWA36z9jMjapwGcVxPhuNKL2K8kTu+EADGh278eSfuUXnBcSfQ60nsP+G8DZJq3742wfUWe0ht2yuXesF3uA9vvlL5ooFzqC+ulfrCm9UN92pMydRcpT6GWcuFp1FDO95eppvw2AFWUX59BpUKr5eyzN0rP9o9TA1D55ntz0OYvQZvkRWvAi5ZHHrS0edDc5oa/1Q1fiwu+Zheaml1o9DvR6HPC2+SAp8kBd6Mdbq8dLq8NTe58EMd5wHYGsJ0GGk4BDScA63HAehSoPwzU/QDUHQJqvwWpOQhSfQCkah9I5W4Qy06QilSQ8m0gZVtASjeClKwHKVoLUrgKUsFS+HPmoDZtyM2gAG0tFkW8zaMKU1GvzwFPI5Wzw+m2weFqgM1pRYO9HvW2OtRZa2C1lsNpzUOLLQOwnQKx7IZUuhVS6SeQSrZAKtkMqeRjSMWbIBVvhFT8EWODQtH6yGD7SfE6NOfOlbQRuvkciPcW4LoMuC6FIQ1wUi4CzguA8zxgPwdYT4BUfaWIm0pz2XWMDxUKUwTW6mDPi1K0/fRnC9dCDRCo3AtSfxyk9nuQ6kMg1d+CVH0tC5HKL0Es+0Ese0EqdoNU7AIp/xxS+WeQyj6FVLYdUuk2Xdtm0lyWy62BVLha4SHlAxPYHnn/GjWYGoDUHQOpMZPfB2LZA1LxhSCfCqlsB5Ono2IgbijNhGWpVQjIrGSsQKDABPpO3bdKDaYFqI1Avnyn0PoOoXU+KkbiwdKqsCy2HIGCZYylCvmcJQz2XIbvXc5YIQTokLxR63xUdOJm0qrkYsaiCOH7l8ihhADfdUxennV960biemlReCECf1PeF3jPBHHPQuVn8xcJAaq+Aak6aCKfGmJkWOvyjFPx1TpxselFOmEq9i5jAQIPwqDu1UIJAaj8gQjlN4VofaWBuIG0KjYfgQfzdLyjQ3w3n0EDLRACUPnK/QZjE4k8a12e8WUG4qI0FxBE789lvB0Gtk8IJgQQ73lh5kX5Yr28UeviqOjFmXSQ7FuMOTLSX5TZAsoz/l7brwTSAtDRYR+p9gdW33xKe3n1gAqtm4orwprkLMbMEMwSUILR3yEE2KN9pMpSdbdNqOb5yOhbNxbXGubCMyDlUd7UkWzwbIayXwilBWh3aMWrMhJ5fet6cTPpZEh50wXegHRPII/D3ycL4WaIAXYZzD27Kos2aAc2rDxvXWxcFBeluejrjGlh4Pu0QFqAdqPDDy2/56n8ahN5flDnIXCfy4ujohNXpanUVIW7UxiTDeDvprD9WiA1gHZl6ueef6T4Vbk8hPxcnfxMNiom4qrwJMZrYZgUHOreVCGAPDrbdaMjzj2/55cGH1hDeTYyauuiuCjNxHInQsp9VWCCDv6c7psYFEYIsCPE6NC55x+pxRHI85HhrYuNT9JJT2CMh/QnZZwJ45U9ukBagKCDy24ddXRWmowOv23M5Fnr6qjoxbnwWMYYxmiBMQJjtUAsjBBA375wZQaNTkfk9a0biY+BlDMaUs4rjFEmsPdqKCWMECBU+6FGh9/xM83l1db14qLwy5BykkDucEYK/06S3yl7eBgliBZAvXkM2s83aD+k/DQTebFxRZqospQRIHdeMmAEQwklBhECbNZunrDtG41OsnZgg+QnsMNJ5fmo0P88KVj69ouM4Saw92qgkXIQIQAfH+HmMZz9SEZnMqRcPvN6ed66KD4c5PYwkNtDQbIpQ4Khz2WGaWHkICP1AbTxCf5ohWhf/lDp5O+Gkmeti+LZXHYwSPYLJgwWwrAgd0YIfxeiZ8B0fELNPv9QGY3OOOGwcnneOm98MBMcBPLHQMbzAvzZoHZBHmWP0gI0ZAzxBOQzkGJwePU3TwTth5NXGx9kIB2KgfLPPcpOon/kdasBrBfihteei7ZX/dINj0PlmW6w/NwdltPdUfFTNMpPRaPsZA+UnohByfEYFB+LRdHRWBQe6YmHP/ZEweG4f0XhkUR70ck+Q9UAXatrda2u1bWiHnP9Aw5IwHNzYU21AAAAAElFTkSuQmCC;" vertex="1" parent="1">
          <mxGeometry x="-320" y="633.5" width="20" height="20" as="geometry" />
        </mxCell>
      </root>
    </mxGraphModel>
  </diagram>
</mxfile>
